<svg width="24" height="25" viewBox="0 0 24 25" fill="none" xmlns="http://www.w3.org/2000/svg">
<path d="M20 3.82031H4C3.20435 3.82031 2.44129 4.13638 1.87868 4.69899C1.31607 5.2616 1 6.02466 1 6.82031V19.8203C1 20.0855 1.10536 20.3399 1.29289 20.5274C1.48043 20.715 1.73478 20.8203 2 20.8203H6C6.16471 20.8195 6.32665 20.7779 6.47145 20.6994C6.61625 20.6209 6.73941 20.5079 6.83 20.3703L8.54 17.8203H15.46L17.17 20.3703C17.2606 20.5079 17.3838 20.6209 17.5285 20.6994C17.6733 20.7779 17.8353 20.8195 18 20.8203H22C22.2652 20.8203 22.5196 20.715 22.7071 20.5274C22.8946 20.3399 23 20.0855 23 19.8203V6.82031C23 6.02466 22.6839 5.2616 22.1213 4.69899C21.5587 4.13638 20.7956 3.82031 20 3.82031ZM21 18.8203H18.54L16.83 16.3203C16.7454 16.1735 16.6248 16.0505 16.4796 15.9631C16.3344 15.8756 16.1694 15.8265 16 15.8203H8C7.83529 15.8212 7.67335 15.8627 7.52855 15.9412C7.38375 16.0197 7.26059 16.1328 7.17 16.2703L5.46 18.8203H3V13.8203H21V18.8203ZM7 11.8203V10.8203C7 10.5551 7.10536 10.3007 7.29289 10.1132C7.48043 9.92567 7.73478 9.82031 8 9.82031H10C10.2652 9.82031 10.5196 9.92567 10.7071 10.1132C10.8946 10.3007 11 10.5551 11 10.8203V11.8203H7ZM13 11.8203V10.8203C13 10.5551 13.1054 10.3007 13.2929 10.1132C13.4804 9.92567 13.7348 9.82031 14 9.82031H16C16.2652 9.82031 16.5196 9.92567 16.7071 10.1132C16.8946 10.3007 17 10.5551 17 10.8203V11.8203H13ZM21 11.8203H19V10.8203C19 10.0247 18.6839 9.2616 18.1213 8.69899C17.5587 8.13638 16.7956 7.82031 16 7.82031H14C13.2599 7.82472 12.5476 8.10252 12 8.60031C11.4524 8.10252 10.7401 7.82472 10 7.82031H8C7.20435 7.82031 6.44129 8.13638 5.87868 8.69899C5.31607 9.2616 5 10.0247 5 10.8203V11.8203H3V6.82031C3 6.5551 3.10536 6.30074 3.29289 6.11321C3.48043 5.92567 3.73478 5.82031 4 5.82031H20C20.2652 5.82031 20.5196 5.92567 20.7071 6.11321C20.8946 6.30074 21 6.5551 21 6.82031V11.8203Z" fill="#322F8D" fill-opacity="0.46"/>
</svg>
