<svg width="330" height="333" viewBox="0 0 330 333" fill="none" xmlns="http://www.w3.org/2000/svg">
<path d="M165 0C120.482 0.826496 78.1128 19.063 47.1853 50.7098C16.2578 82.3567 -0.703164 124.83 0.0223533 168.815V325.987H49.5156C54.9349 326.176 60.2093 324.236 64.1846 320.593C68.1599 316.949 70.5123 311.898 70.7271 306.544V229.006C70.5123 223.653 68.1599 218.602 64.1846 214.958C60.2093 211.314 54.9349 209.374 49.5156 209.563H23.5906V168.815C22.864 131.005 37.3416 94.4536 63.8495 67.1733C90.3573 39.893 126.732 24.1101 165 23.2848C203.268 24.1101 239.643 39.893 266.151 67.1733C292.658 94.4536 307.136 131.005 306.409 168.815V209.563H280.484C275.065 209.374 269.791 211.314 265.815 214.958C261.84 218.602 259.488 223.653 259.273 229.006V306.661C259.518 311.993 261.884 317.015 265.855 320.634C269.827 324.253 275.085 326.177 280.484 325.987H329.978V168.815C330.703 124.83 313.742 82.3567 282.815 50.7098C251.887 19.063 209.518 0.826496 165 0Z" fill="white"/>
<path fill-rule="evenodd" clip-rule="evenodd" d="M165 306.886C208.076 306.886 243 263.034 243 208.95C243 154.852 208.076 111 165 111C121.924 111 87 154.852 87 208.95C87 230.065 92.3235 249.629 101.381 265.613L91.875 332L130.056 296.539C141.12 303.433 153.003 306.952 165 306.886Z" stroke="#322F8D" stroke-width="2" stroke-linecap="round" stroke-linejoin="round"/>
<path fill-rule="evenodd" clip-rule="evenodd" d="M164.99 226.934C169.865 226.934 174.74 219.688 174.74 212.442C174.74 205.197 169.865 197.951 164.99 197.951C160.115 197.951 155.25 205.197 155.25 212.442C155.25 219.688 160.115 226.934 164.99 226.934ZM125.99 226.934C130.865 226.934 135.74 219.688 135.74 212.442C135.74 205.197 130.865 197.951 125.99 197.951C121.115 197.951 116.25 205.197 116.25 212.442C116.25 219.688 121.115 226.934 125.99 226.934ZM203.99 226.934C208.865 226.934 213.75 219.688 213.75 212.442C213.75 205.197 208.875 197.951 204 197.951C199.125 197.951 194.25 205.197 194.25 212.442C194.25 219.688 199.125 226.934 204 226.934" fill="#FAAC40"/>
</svg>
