<svg width="25" height="25" viewBox="0 0 25 25" fill="none" xmlns="http://www.w3.org/2000/svg">
<path d="M14.4737 6.25H12.4868C11.6579 6.25 10.8421 6.71875 10.3947 7.34375L9.21053 3.125H5.43421L2.28947 14.0625H4.51316L5.48684 10.9375H9.21053V17.1875H2.63158C1.18421 17.1875 0 15.7812 0 14.0625V3.125C0 1.40625 1.18421 0 2.63158 0H11.8421C13.2895 0 14.4737 1.40625 14.4737 3.125V6.25ZM8.56579 9.375H5.90789L7.22368 4.79688L8.56579 9.375ZM13.1579 7.8125H22.3684C23.8158 7.8125 25 9.21875 25 10.9375V21.875C25 23.5938 23.8158 25 22.3684 25H13.1579C11.7105 25 10.5263 23.5938 10.5263 21.875V10.9375C10.5263 9.21875 11.7105 7.8125 13.1579 7.8125ZM22.6974 15.625V13.9375H18.5263V10.5469H17V13.9375H12.8289V15.625H14.5132C14.6579 16.9531 15.25 18.5156 16.1974 19.7188C15.0526 20.2812 13.7105 20.6875 13.1579 20.6875C13.1447 20.7188 13.4474 22.2031 13.4211 22.9688C14.5263 22.9688 16.3289 22.1875 17.7368 21.1719C19.1711 22.1875 21 22.9688 22.1316 22.9688C22.1053 22.2031 22.3947 20.7188 22.3947 20.6875C21.8289 20.6875 20.4342 20.2656 19.2632 19.7031C20.1842 18.5 20.7632 16.9375 20.9079 15.625H22.6974ZM17.6842 18.6406C17.0263 17.9219 16.5658 16.875 16.3553 15.625H19.1053C18.8816 16.875 18.4342 17.9219 17.7895 18.6406L17.7368 18.6875C17.7368 18.6875 17.6974 18.6562 17.6842 18.6406Z" fill="white" fill-opacity="0.8"/>
</svg>
