<svg width="25" height="24" viewBox="0 0 25 24" fill="none" xmlns="http://www.w3.org/2000/svg">
<path d="M17.5 7.57861C19.4891 7.57861 21.3968 8.37711 22.8033 9.79844C24.2098 11.2198 25 13.1475 25 15.1576V23.9997H20V15.1576C20 14.4875 19.7366 13.845 19.2678 13.3712C18.7989 12.8974 18.163 12.6312 17.5 12.6312C16.837 12.6312 16.2011 12.8974 15.7322 13.3712C15.2634 13.845 15 14.4875 15 15.1576V23.9997H10V15.1576C10 13.1475 10.7902 11.2198 12.1967 9.79844C13.6032 8.37711 15.5109 7.57861 17.5 7.57861ZM0 8.84177H5V23.9997H0V8.84177Z" fill="white" fill-opacity="0.94"/>
<path d="M2.5 5.05263C3.88071 5.05263 5 3.92156 5 2.52632C5 1.13107 3.88071 0 2.5 0C1.11929 0 0 1.13107 0 2.52632C0 3.92156 1.11929 5.05263 2.5 5.05263Z" fill="white"/>
</svg>
