<svg width="25" height="24" viewBox="0 0 25 24" fill="none" xmlns="http://www.w3.org/2000/svg">
<path d="M17.5 7.5791C19.4891 7.5791 21.3968 8.3776 22.8033 9.79892C24.2098 11.2203 25 13.148 25 15.158V24.0002H20V15.158C20 14.488 19.7366 13.8455 19.2678 13.3717C18.7989 12.8979 18.163 12.6317 17.5 12.6317C16.837 12.6317 16.2011 12.8979 15.7322 13.3717C15.2634 13.8455 15 14.488 15 15.158V24.0002H10V15.158C10 13.148 10.7902 11.2203 12.1967 9.79892C13.6032 8.3776 15.5109 7.5791 17.5 7.5791ZM0 8.84226H5V24.0002H0V8.84226Z" fill="white" fill-opacity="0.94"/>
<path d="M2.5 5.05263C3.88071 5.05263 5 3.92156 5 2.52632C5 1.13107 3.88071 0 2.5 0C1.11929 0 0 1.13107 0 2.52632C0 3.92156 1.11929 5.05263 2.5 5.05263Z" fill="white"/>
</svg>
