<svg width="20" height="20" viewBox="0 0 20 20" fill="none" xmlns="http://www.w3.org/2000/svg">
<path d="M18.8323 12.5003C19.6015 11.2711 20.0026 9.8995 20 8.50698C20 3.80863 15.5229 0 10 0C4.47707 0 1.46692e-05 3.80863 1.46692e-05 8.50698C-0.00403334 10.5138 0.829834 12.4566 2.35295 13.989L2.36472 14.0015C2.36884 14.0045 2.37236 14.0085 2.37531 14.0115H2.35295L8.28706 19.3709C8.50704 19.5695 8.77245 19.7278 9.06697 19.836C9.36149 19.9442 9.6789 20 9.99971 20C10.3205 20 10.6379 19.9442 10.9324 19.836C11.227 19.7278 11.4924 19.5695 11.7124 19.3709L17.647 14.0115H17.6247L17.6341 14.002L17.6353 14.001C17.6776 13.958 17.72 13.9149 17.7618 13.8709C18.1698 13.4443 18.5283 12.9856 18.8323 12.5003ZM10.0029 11.7592C9.06688 11.7592 8.16917 11.4428 7.50727 10.8798C6.84538 10.3167 6.47353 9.55299 6.47353 8.75669C6.47353 7.96039 6.84538 7.1967 7.50727 6.63363C8.16917 6.07055 9.06688 5.75422 10.0029 5.75422C10.939 5.75422 11.8367 6.07055 12.4986 6.63363C13.1605 7.1967 13.5323 7.96039 13.5323 8.75669C13.5323 9.55299 13.1605 10.3167 12.4986 10.8798C11.8367 11.4428 10.939 11.7592 10.0029 11.7592Z" fill="white"/>
</svg>
