<svg width="48" height="75" viewBox="0 0 48 75" fill="none" xmlns="http://www.w3.org/2000/svg">
<path d="M21.8054 0.861072C21.7959 0.691537 21.8641 0.627958 22.0099 0.667693C22.231 0.72862 22.452 0.990872 22.6472 1.12597C24.6178 2.50609 26.5649 3.89151 28.5285 5.20275C30.6825 6.64115 32.8107 8.09015 34.9153 9.54974C37.0858 11.0544 39.221 12.4504 41.3351 13.9338C43.1881 15.2318 45.0482 16.498 46.9106 17.7324C47.0752 17.8411 47.1764 18.0424 47.1764 18.2569C47.1764 31.2184 47.1552 44.1958 47.1105 57.1891C47.1082 57.5334 46.9694 57.7983 46.6919 57.9784C44.4391 59.4566 42.2263 60.9109 40.0558 62.3413C34.4638 66.0287 28.7613 69.8062 22.9506 73.671C22.5931 73.9094 22.2733 74.2273 21.9323 74.4896C21.8195 74.577 21.669 74.4816 21.676 74.3306C21.7042 73.6287 21.7183 72.9346 21.7207 72.2485C21.7748 49.0487 21.8171 25.735 21.8453 2.30741C21.8524 1.82265 21.8359 1.34054 21.8054 0.861072Z" fill="#294199"/>
<path d="M19.0895 60.4234C18.1841 60.1135 17.2976 59.8539 16.4275 59.6499C11.1365 58.4022 5.79844 57.1201 0.415712 55.8089C0.300485 55.7797 0.21582 55.6658 0.21582 55.5334L0.251099 14.2119C0.253451 13.947 0.375733 13.7033 0.575616 13.5655C5.68321 10.0768 10.8472 6.53513 16.063 2.94046C17.0718 2.24643 18.1159 1.49941 19.1929 0.707364C19.2588 0.659682 19.3505 0.702065 19.3646 0.789482C19.3881 0.921931 19.3999 1.06233 19.3975 1.21067C19.3764 3.14443 19.3693 5.43316 19.3717 8.07949C19.3834 22.482 19.374 36.7627 19.3387 50.9242C19.3293 53.8115 19.3105 56.7016 19.2752 59.589C19.2729 59.8539 19.2541 60.1029 19.2211 60.3333C19.2117 60.4022 19.1483 60.4446 19.0895 60.4234Z" fill="#FAAC40"/>
</svg>
