<svg width="215" height="125" viewBox="0 0 215 125" fill="none" xmlns="http://www.w3.org/2000/svg">
<path d="M17.5552 87.7366H9.61915C4.93366 87.7366 0.560547 93.8667 0.560547 101.889C0.560547 109.271 4.83605 115.726 9.61915 115.726C11.0443 115.726 11.957 115.567 13.2797 114.625V105.825C12.3621 107.71 11.1419 108.811 9.61915 108.811C7.17391 108.811 5.13865 105.358 5.13865 101.897C5.13865 98.2852 7.17391 94.8243 9.61915 94.8243H17.5552V87.7366ZM28.6539 87.7366C23.8708 87.7366 19.5953 94.1759 19.5953 101.889C19.5953 109.271 23.7683 115.726 28.6539 115.726C33.6371 115.726 37.7076 109.12 37.7076 101.889C37.7076 94.0251 33.5395 87.7366 28.6539 87.7366ZM28.6539 108.804C26.1111 108.804 24.0758 105.35 24.0758 101.889C24.0758 98.2777 26.0086 94.8168 28.6539 94.8168C31.0943 94.8168 33.1295 98.2777 33.1295 101.889C33.1295 105.35 31.0943 108.804 28.6539 108.804ZM50.5342 87.7366H39.4403V94.8092H50.5342C52.9745 94.8092 55.1123 98.2702 55.1123 101.882C55.1123 105.343 52.9745 108.796 50.5342 108.796H47.7863V98.2702H43.2033V115.718H50.5342C55.5174 115.718 59.6904 109.113 59.6904 101.882C59.6904 94.0251 55.4198 87.7366 50.5342 87.7366ZM77.4025 87.7366H61.5255V94.8092H77.4025V87.7366ZM73.7371 108.804H66.1085V105.35H73.7371V98.2777H61.5255V115.726H73.7371V108.804ZM92.0593 87.8874L88.7013 94.8092H94.0945L97.2475 87.8874H92.0593ZM84.3233 87.8874H79.1351L82.4931 94.8092H87.6813L84.3233 87.8874ZM90.7366 101.889L92.5717 98.2777H84.0207L85.5435 101.889L79.1351 115.726H84.3233L88.1889 107.235L92.0593 115.726H97.2475L90.7366 101.889ZM114.247 88.6791H111.699V115.726H114.247V88.6791ZM120.045 97.9535H117.707V115.718H120.045V102.983C121.065 101.098 121.876 100.472 122.896 100.472C124.321 100.472 125.136 102.04 125.136 104.709V115.718H127.474V104.709C127.474 99.8385 125.639 97.6368 123.506 97.6368C122.836 97.6498 122.177 97.8967 121.578 98.3589C120.978 98.8211 120.454 99.4868 120.045 100.306V97.9535ZM133.277 94.1759L129.001 100.781V101.098H131.037V110.53C131.037 113.675 132.257 116.193 134.8 116.193C135.512 116.193 136.732 115.567 137.547 114.934V111.631C136.774 112.472 135.848 112.913 134.902 112.89C134.287 112.89 133.272 112.415 133.272 110.221V101.098H136.937V97.9535H133.272L133.277 94.1759ZM148.851 110.696C147.529 111.948 146.206 112.74 144.781 112.74C142.643 112.74 141.32 111.013 140.91 107.394H149.056C149.056 100.789 147.123 97.6443 144.068 97.6443C140.813 97.6443 138.68 101.256 138.68 106.602C138.68 111.639 140.613 116.193 144.273 116.193C146.206 116.193 147.426 115.409 148.851 113.991V110.696ZM141.013 105.034C141.315 102.206 142.335 100.63 144.063 100.63C145.693 100.63 146.713 102.357 146.811 105.034H141.013ZM160.755 97.9535H155.977C152.824 97.9535 150.886 100.306 150.886 104.084C150.886 105.343 151.091 106.594 151.599 107.386C152.064 108.407 152.695 109.219 153.429 109.739C151.677 110.561 150.872 112.747 152.819 114.61C150.784 115.394 149.866 116.811 149.866 119.48C149.866 122.625 152.107 124.985 155.26 124.985C158.618 124.985 160.653 122.783 160.653 119.171C160.653 116.97 159.838 115.077 157.295 114.3C155.055 113.516 153.834 112.883 153.834 111.94C153.834 109.897 156.987 111.156 158.52 108.638C159.027 107.695 159.535 105.969 159.535 104.551C159.535 103.134 159.232 102.033 158.417 100.623H160.755V97.9535ZM157.5 104.091C157.514 104.551 157.465 105.01 157.358 105.44C157.25 105.869 157.085 106.259 156.874 106.584C156.663 106.909 156.411 107.162 156.133 107.328C155.855 107.493 155.557 107.567 155.26 107.544C153.937 107.544 153.019 106.127 153.019 104.242C153.019 102.515 154.039 100.939 155.26 100.939C156.48 100.939 157.5 102.357 157.5 104.091ZM158.52 119.496C158.52 121.222 157.295 122.165 155.26 122.165C153.224 122.165 152.107 121.222 152.107 119.337C152.107 117.761 153.127 116.668 154.65 116.668C156.075 116.668 158.52 117.294 158.52 119.496ZM162.693 97.9535V115.718H164.933V106.444C164.933 103.458 166.153 100.947 167.784 100.947C168.291 100.947 169.209 101.731 169.921 102.674L171.141 99.6877C170.126 98.2702 169.311 97.6443 168.398 97.6443C167.281 97.6443 166.158 98.9035 165.041 102.048H164.938V97.961L162.693 97.9535ZM181.625 112.581C181.118 113.207 180.708 113.524 180.405 113.524C180.2 113.524 179.995 113.365 179.995 112.581V103.458C179.995 99.371 178.165 97.6443 175.827 97.6443C174.099 97.6443 172.874 98.4285 171.957 100.004V103.933C173.074 101.889 174.402 100.947 175.622 100.947C177.047 100.947 177.76 101.889 177.76 104.091V105.034L175.724 106.134C173.792 107.235 171.756 108.178 171.756 111.797C171.747 112.379 171.814 112.958 171.954 113.499C172.094 114.04 172.304 114.531 172.57 114.943C172.837 115.355 173.155 115.679 173.505 115.895C173.855 116.111 174.23 116.215 174.607 116.201C175.627 116.201 176.642 115.575 177.662 114.316C177.867 115.575 178.477 116.201 179.492 116.201C180.205 116.201 180.61 115.884 181.63 114.783L181.625 112.581ZM177.755 112.106C177.145 113.049 176.432 113.675 175.72 113.675C175.505 113.679 175.293 113.616 175.094 113.492C174.896 113.367 174.716 113.182 174.564 112.948C174.413 112.714 174.293 112.436 174.213 112.129C174.132 111.823 174.092 111.495 174.094 111.164C174.094 108.962 175.72 108.02 177.755 106.919V112.106ZM186.403 94.1759L182.03 100.781V101.098H184.066V110.53C184.066 113.675 185.286 116.193 187.829 116.193C188.541 116.193 189.761 115.567 190.576 114.934V111.631C189.834 112.448 188.945 112.888 188.034 112.89C187.321 112.89 186.403 112.415 186.403 110.221V101.098H189.966V97.9535H186.403V94.1759ZM197.707 97.6368C194.247 97.6368 191.596 101.565 191.596 106.76C191.596 112.106 194.139 116.193 197.707 116.193C201.368 116.193 203.911 112.265 203.911 106.76C203.911 101.414 201.265 97.6368 197.707 97.6368ZM197.6 100.781C199.938 100.781 201.568 103.299 201.568 106.76C201.568 110.53 200.045 112.89 197.6 112.89C195.462 112.89 193.934 110.53 193.934 106.76C193.934 103.299 195.467 100.781 197.6 100.781ZM206.556 97.9535V115.718H208.894V106.444C208.894 103.458 210.119 100.947 211.744 100.947C212.252 100.947 213.169 101.731 213.882 102.674L215 99.6877C214.082 98.2702 213.164 97.6443 212.252 97.6443C211.236 97.6443 210.114 98.9035 208.894 102.048V97.961L206.556 97.9535ZM110.479 62.4169L141.93 31.2838L110.479 0.158203V62.4169Z" fill="#3B4095"/>
<path d="M107.019 62.2663L75.5723 31.1331L107.019 0V62.2663Z" fill="#86C19B"/>
</svg>
