<svg width="223" height="118" viewBox="0 0 223 118" fill="none" xmlns="http://www.w3.org/2000/svg">
<g filter="url(#filter0_dd_1063_1188)">
<path d="M131.605 100.287C131.605 100.965 131.467 101.643 131.33 102.32C131.192 102.998 130.917 103.676 130.642 104.353C130.367 105.031 129.955 105.483 129.542 105.708C129.13 105.934 128.58 106.16 127.892 106.16C127.205 106.16 126.655 105.934 126.242 105.708C125.83 105.257 125.417 104.805 125.005 104.127C124.73 103.45 124.455 102.772 124.317 101.869C124.18 100.965 124.042 100.062 124.042 99.1581C124.042 98.0287 124.18 96.8994 124.317 95.9959C124.592 95.0924 124.867 94.1889 125.142 93.5113C125.555 92.8337 125.967 92.3819 126.517 91.9302C127.067 91.4784 127.617 91.4784 128.167 91.4784C129.13 91.4784 129.817 91.7043 130.367 92.156C130.917 92.6078 131.192 92.8337 131.467 93.0595V100.287H131.605ZM134.08 106.838V79.2813H131.605V89.2197C131.33 88.9938 130.917 88.7679 130.367 88.3162C129.817 87.8645 129.13 87.8645 128.167 87.8645C127.48 87.8645 126.792 88.0903 125.967 88.5421C125.142 88.9938 124.455 89.6714 123.767 90.5749C123.079 91.4784 122.529 92.6078 122.117 93.963C121.704 95.3183 121.429 97.1252 121.429 99.1581C121.429 100.739 121.567 102.32 121.842 103.676C122.117 105.031 122.529 106.16 123.079 107.064C123.629 107.967 124.18 108.645 124.867 109.322C125.555 109.774 126.38 110 127.205 110C127.892 110 128.442 109.774 128.855 109.548C129.267 109.322 129.68 108.871 130.092 108.645C130.505 108.193 130.78 107.967 130.917 107.515C131.192 107.064 131.33 106.838 131.33 106.612L131.467 109.322H133.942C134.08 108.419 134.08 107.515 134.08 106.838ZM117.442 101.643C117.442 102.32 117.304 102.772 117.167 103.45C117.029 104.127 116.754 104.579 116.342 105.031C116.067 105.483 115.654 105.934 115.242 106.16C114.829 106.386 114.279 106.612 113.867 106.612C113.042 106.612 112.354 106.386 111.804 105.708C111.254 105.031 111.117 104.353 111.117 103.224C111.117 102.772 111.117 102.32 111.254 101.869C111.392 101.417 111.529 100.965 111.804 100.513C112.079 100.062 112.354 99.8357 112.904 99.6098C113.317 99.384 113.867 99.1581 114.554 99.1581C114.829 99.1581 115.104 99.1581 115.517 99.1581C115.792 99.1581 116.067 99.1581 116.342 99.1581C116.617 99.1581 116.892 99.1581 117.029 99.1581C117.304 99.1581 117.442 99.1581 117.442 99.384V101.643ZM119.779 95.0924C119.779 92.6078 119.367 90.8008 118.404 89.6714C117.442 88.3162 116.067 87.6386 114.417 87.6386C113.729 87.6386 113.042 87.6386 112.492 87.8645C111.942 88.0903 111.529 88.3162 110.979 88.5421C110.566 88.768 110.154 88.9938 109.879 89.4456C109.604 89.6714 109.329 90.1232 109.054 90.3491L110.291 93.0595C110.704 92.6078 111.117 92.156 111.804 91.7043C112.354 91.2525 113.179 91.0267 114.142 91.0267C115.104 91.0267 115.929 91.2525 116.479 91.9302C117.029 92.6078 117.304 93.7372 117.304 95.3183V95.9959C117.167 95.9959 117.029 95.9959 116.892 95.9959C116.617 95.9959 116.342 95.9959 116.067 95.9959C115.792 95.9959 115.517 95.9959 115.104 95.9959C114.692 95.9959 114.417 95.9959 114.142 95.9959C112.354 95.9959 110.841 96.6735 109.879 98.0287C108.916 99.384 108.366 101.191 108.366 103.45C108.366 104.579 108.504 105.708 108.779 106.386C109.054 107.29 109.466 107.967 109.879 108.419C110.291 108.871 110.841 109.322 111.392 109.548C111.942 109.774 112.492 109.774 113.042 109.774C113.867 109.774 114.692 109.548 115.517 109.096C116.342 108.645 116.892 107.741 117.442 106.838V109.322H119.779C119.779 108.871 119.779 108.193 119.779 107.515V95.0924ZM104.379 109.096H106.854V79.2813H104.379V109.096ZM99.1536 109.096H101.629V88.3162H99.1536V109.096ZM99.0161 84.4764H101.766V79.9589H99.0161V84.4764ZM94.3409 101.643C94.0659 102.546 93.7909 103.45 93.3783 104.127C92.9658 104.805 92.4158 105.257 91.8658 105.708C91.3158 105.934 90.6282 106.16 89.9407 106.16C89.2532 106.16 88.5657 106.16 88.2907 105.934C87.8781 105.708 87.6031 105.708 87.3281 105.483V97.1252C87.3281 96.4476 87.4656 95.5441 87.6031 94.8665C87.7406 94.1889 88.0156 93.5113 88.2907 92.8337C88.5657 92.3819 88.9782 91.9302 89.3907 91.4784C89.8032 91.0267 90.3532 91.0267 91.0408 91.0267C91.7283 91.0267 92.2783 91.2525 92.6908 91.7043C93.1033 92.156 93.5159 92.6078 93.7909 93.2854C94.0659 93.963 94.3409 94.6406 94.4784 95.5441C94.6159 96.4476 94.7534 97.3511 94.7534 98.2546C94.6159 99.6098 94.6159 100.739 94.3409 101.643ZM95.7159 90.8008C95.1659 89.8973 94.6159 88.9938 93.9284 88.5421C93.2408 88.0903 92.2783 87.6386 91.3158 87.6386C90.7657 87.6386 90.3532 87.6386 89.8032 87.8645C89.3907 88.0903 88.9782 88.3162 88.7032 88.5421C88.4282 88.768 88.1532 89.2197 87.8781 89.4456C87.6031 89.6714 87.4656 90.1232 87.3281 90.3491V79.0554H84.853V108.419C85.403 108.871 86.0906 109.096 87.0531 109.322C88.0156 109.548 88.9782 109.774 89.9407 109.774C91.0408 109.774 92.0033 109.548 92.8283 108.871C93.6534 108.419 94.4784 107.515 95.1659 106.612C95.8534 105.708 96.266 104.353 96.6785 102.998C97.091 101.643 97.2285 100.062 97.2285 98.4805C97.2285 96.8994 97.091 95.5441 96.816 94.1889C96.6785 93.0595 96.266 91.9302 95.7159 90.8008ZM79.7653 109.096H82.3779V79.2813H79.9028V109.096H79.7653ZM66.9774 97.1252L70.0025 84.0246L73.0276 97.1252H66.9774ZM68.7649 79.2813L61.4771 109.096H64.2273L66.1523 100.739H73.8526L75.7777 109.096H78.8028L71.515 79.2813H68.7649ZM57.077 88.3162H54.0519L48.5517 96.8994V79.2813H46.0766V109.096H48.5517V101.417L50.3392 98.7064L54.7394 109.096H57.7645L52.1268 95.9959L57.077 88.3162ZM38.7888 87.6386C38.2388 87.6386 37.6888 87.8645 37.1387 88.0903C36.7262 88.3162 36.3137 88.5421 35.9012 88.9938C35.4887 89.4456 35.2137 89.6714 35.0762 90.1232C34.8012 90.5749 34.6636 91.0267 34.5261 91.2526L34.3886 88.0903H32.0511C32.0511 88.768 32.0511 89.4456 32.0511 90.1232V108.871H34.5261V99.384C34.5261 98.4805 34.5261 97.3511 34.6636 96.4476C34.8012 95.5441 34.9387 94.6406 35.3512 93.7372C35.6262 93.0595 36.0387 92.3819 36.4512 91.9302C37.0012 91.4784 37.5513 91.2526 38.2388 91.2526C39.2013 91.2526 39.8888 91.7043 40.4389 92.6078C40.9889 93.5113 41.2639 94.8665 41.2639 96.8994V109.096H43.739V96.6735C43.739 93.963 43.3265 91.7043 42.5014 90.1232C41.8139 88.5421 40.4389 87.6386 38.7888 87.6386ZM27.1009 101.643C27.1009 102.32 26.9634 102.772 26.8259 103.45C26.6884 104.127 26.4133 104.579 26.0008 105.031C25.7258 105.483 25.3133 105.934 24.9008 106.16C24.4883 106.386 23.9382 106.612 23.5257 106.612C22.7007 106.612 22.0132 106.386 21.4632 105.708C20.9131 105.031 20.7756 104.353 20.7756 103.224C20.7756 102.772 20.7756 102.32 20.9131 101.869C21.0506 101.417 21.1881 100.965 21.4632 100.513C21.7382 100.062 22.0132 99.8357 22.5632 99.6098C22.9757 99.384 23.5257 99.1581 24.2133 99.1581C24.4883 99.1581 24.7633 99.1581 25.1758 99.1581C25.4508 99.1581 25.7258 99.1581 26.0008 99.1581C26.2758 99.1581 26.5508 99.1581 26.6884 99.1581C26.9634 99.1581 27.1009 99.1581 27.1009 99.384V101.643ZM29.576 95.0924C29.576 92.6078 29.1634 90.8008 28.2009 89.6714C27.2384 88.3162 25.8633 87.6386 24.2133 87.6386C23.5257 87.6386 22.8382 87.6386 22.2882 87.8645C21.7382 88.0903 21.3256 88.3162 20.7756 88.5421C20.3631 88.768 19.9506 88.9938 19.6756 89.4456C19.4006 89.6714 19.1256 90.1232 18.8506 90.3491L20.0881 93.0595C20.5006 92.6078 20.9131 92.156 21.6007 91.7043C22.2882 91.2525 22.9757 91.0267 23.9382 91.0267C24.9008 91.0267 25.7258 91.2525 26.2758 91.9302C26.8259 92.6078 27.1009 93.7372 27.1009 95.3183V95.9959C26.9634 95.9959 26.8259 95.9959 26.6884 95.9959C26.4133 95.9959 26.1383 95.9959 25.8633 95.9959C25.5883 95.9959 25.3133 95.9959 24.9008 95.9959C24.6258 95.9959 24.2133 95.9959 23.9382 95.9959C22.1507 95.9959 20.6381 96.6735 19.6756 98.0287C18.7131 99.384 18.163 101.191 18.163 103.45C18.163 104.579 18.3005 105.708 18.5755 106.386C18.8506 107.29 19.2631 107.967 19.6756 108.419C20.0881 108.871 20.6381 109.322 21.1881 109.548C21.7382 109.774 22.2882 109.774 22.8382 109.774C23.6632 109.774 24.4883 109.548 25.3133 109.096C26.1383 108.645 26.6883 107.741 27.2384 106.838V109.322H29.576C29.576 108.871 29.576 108.193 29.576 107.515V95.0924ZM13.9004 103.224C13.6254 103.901 13.2128 104.353 12.8003 104.579C12.3878 104.805 11.8378 105.031 11.4253 105.257C10.8753 105.257 10.4627 105.483 9.91272 105.483H6.6126V95.5441H10.0502C10.4627 95.5441 11.0128 95.5441 11.5628 95.77C12.1128 95.9959 12.5253 96.2217 12.9378 96.4476C13.2128 96.6735 13.6254 97.1252 13.9004 97.8029C14.1754 98.4805 14.3129 99.384 14.3129 100.513C14.3129 101.643 14.1754 102.546 13.9004 103.224ZM6.6126 82.8953H9.91272C10.3252 82.8953 10.7378 82.8953 11.1503 83.1211C11.5628 83.1211 11.9753 83.347 12.2503 83.7987C12.5253 84.0246 12.8003 84.4764 13.0753 85.154C13.2128 85.6057 13.3504 86.5092 13.3504 87.4127C13.3504 88.3162 13.2128 88.9938 13.0753 89.4456C12.8003 89.8973 12.5253 90.3491 12.2503 90.5749C11.9753 91.0267 11.5628 91.2526 11.1503 91.2526C10.7378 91.4784 10.3252 91.4784 9.91272 91.4784H6.6126V82.8953ZM15.5504 95.0924C15.1379 94.4148 14.7254 94.1889 14.1754 93.7372C13.7629 93.5113 13.2128 93.2854 12.9378 93.2854C13.2128 93.2854 13.6254 93.0595 13.9004 92.6078C14.3129 92.3819 14.5879 91.9302 14.8629 91.2526C15.1379 90.8008 15.4129 90.1232 15.6879 89.2197C15.9629 88.5421 15.9629 87.6386 15.9629 86.5092C15.9629 85.3799 15.8254 84.4764 15.5504 83.5729C15.4129 82.8953 15.0004 82.2176 14.5879 81.3141C14.1754 80.6365 13.4879 80.1848 12.8003 79.733C12.1128 79.2813 11.2878 79.0554 10.3252 79.0554H4V108.871H9.91272C10.8753 108.871 11.8378 108.645 12.6628 108.419C13.4879 108.193 14.3129 107.741 14.8629 107.064C15.5504 106.386 15.9629 105.483 16.3755 104.579C16.788 103.45 16.9255 102.094 16.9255 100.513C16.9255 99.1581 16.788 98.0287 16.513 97.1252C16.238 96.4476 15.8254 95.77 15.5504 95.0924ZM65.3273 69.7946C65.4648 69.3429 65.4648 69.3429 65.3273 69.117L62.7147 65.9548L61.2021 69.3429C61.2021 69.3429 61.0646 69.5688 61.2021 69.7946L63.9522 72.9569L65.3273 69.7946ZM124.867 69.3429C124.867 69.3429 124.73 69.5688 124.867 69.7946L127.617 72.9569L129.13 69.7946C129.267 69.3429 129.267 69.3429 129.13 69.117L126.38 65.9548L124.867 69.3429ZM119.367 38.1725C119.367 38.1725 119.229 38.3983 119.367 38.6242L122.117 41.7864L123.629 38.6242C123.767 38.1725 123.767 38.1725 123.629 37.9466L120.879 34.7844L119.367 38.1725ZM131.33 61.2115C133.255 60.5339 133.942 53.5318 133.942 51.0472C133.942 47.4332 132.705 44.271 131.33 41.5605L131.192 41.1088C130.917 42.9158 130.505 44.4969 130.23 46.3039C131.33 48.7885 132.567 51.499 132.567 54.4353C132.43 56.4682 129.405 57.1458 126.93 57.1458C120.879 57.1458 121.429 51.2731 121.567 48.7885C121.567 48.7885 118.679 56.9199 114.417 56.9199C109.466 56.4682 107.954 51.4989 107.816 48.1109C107.816 36.8172 101.629 32.2998 96.4035 19.6509L96.266 19.1991C96.266 19.1991 94.6159 14.9076 94.3409 14.4558C95.1659 13.1006 116.342 5.64678 120.054 4.51742C120.879 4.29155 121.567 4.51742 121.017 7.90551C120.329 11.5195 117.992 21.0061 116.892 25.2977C119.229 19.6509 124.867 -0.225907 122.254 0.225839C117.992 1.58108 96.6785 9.26075 93.6534 11.2936C93.3783 11.9712 92.8283 18.0698 93.1033 18.5215C97.5035 30.2669 103.966 39.0759 105.754 44.0451C106.166 44.9486 106.304 46.078 106.166 46.3039C104.516 52.6283 90.4907 57.5975 85.9531 57.5975C85.128 57.5975 84.303 57.5975 83.203 57.3716C89.1157 42.464 74.6777 13.1006 71.3775 4.51742C70.415 2.03282 70.0025 0.903457 70.0025 0.903457L68.7649 5.19504C69.3149 10.1642 70.69 43.5934 70.69 45.8521C70.69 48.5626 70.69 48.7885 70.69 51.9507C70.69 56.2423 65.6023 56.0164 65.0523 56.0164C63.2647 55.5647 62.4397 49.692 62.3022 45.6263C56.3895 57.8234 49.6517 57.1458 49.5142 57.1458C43.0515 56.0164 42.7765 42.2382 42.6389 34.1068C42.6389 31.3963 42.6389 8.13138 42.2264 0.451712C42.2264 0.451712 40.3014 4.96917 40.1639 5.87266C40.1639 8.13138 40.7139 30.2669 40.9889 36.5914C41.2639 43.3675 40.1639 49.4661 36.5887 54.6612C36.7262 54.2094 37.2762 52.1766 37.2762 51.2731C37.9638 39.5277 29.1634 27.7823 23.5257 14.4558L23.3882 14.0041C23.3882 14.0041 20.9131 7.45377 20.5006 6.3244C20.2256 7.45377 19.8131 10.1642 19.6756 11.7453C26.9634 31.6221 36.4512 42.6899 35.9012 52.6283C35.7637 54.6612 35.6262 55.3388 34.9387 56.4681C31.501 61.2115 27.7884 64.1478 23.6632 67.0842H24.3508C27.5134 67.31 33.0136 65.2772 35.4887 62.3408C39.0638 58.2751 41.5389 50.5955 42.0889 46.078C42.3639 52.4024 42.3639 59.8562 48.0016 62.115C52.1268 63.9219 55.9769 60.9856 58.452 58.0493C60.5146 55.5647 61.7522 53.3059 61.7522 53.3059C61.7522 56.9199 62.1647 59.6304 63.2647 60.5339C65.0523 62.3408 67.6649 61.4374 67.6649 61.4374C73.7151 59.8562 72.7526 48.3367 72.7526 42.9158C72.7526 36.1396 71.3775 14.4558 71.24 11.2936C74.2651 18.9733 86.5031 44.9486 81.5529 57.1458C80.0404 56.694 78.5278 56.0164 77.7028 54.4353C77.7028 54.4353 75.9152 52.4024 75.9152 48.5626C75.9152 43.5934 78.1153 38.8501 78.1153 38.8501C75.7777 42.2382 74.4026 49.0144 74.4026 51.2731C74.4026 56.9199 76.6027 60.0821 79.4903 61.4374C78.1153 63.922 77.8403 64.5996 77.0152 65.9548C78.5278 64.5996 79.7653 63.2443 80.8654 61.8891C81.6904 62.115 82.6529 62.3408 83.478 62.3408C95.1659 62.3408 105.066 55.1129 106.579 49.2402C106.441 64.1478 115.517 61.4374 115.517 61.4374C118.679 60.5339 119.917 58.0493 120.879 56.0164C122.529 65.2772 131.33 61.2115 131.33 61.2115ZM8.53767 62.3408C12.9378 62.3408 22.2882 55.1129 25.4508 52.4024C26.5508 51.499 26.5508 49.0144 26.5508 47.6591C26.5508 45.4004 26.4133 43.8193 25.7258 42.0123C24.0758 38.3983 20.7756 34.5585 16.238 26.6529C16.238 26.6529 14.0379 23.039 12.6628 20.7803L12.2503 25.9753C14.7254 31.3963 19.4006 39.076 25.0383 46.7556C25.3133 46.9815 24.9008 47.4332 24.7633 47.6591C21.1881 50.3696 12.2503 56.694 8.95019 56.694C3.72499 56.9199 5.65006 45.6263 6.20008 43.8193C6.20008 43.8193 6.33759 43.1417 6.06258 42.9158C5.10004 46.5297 0.837382 62.5667 8.53767 62.3408ZM87.0531 45.4004C89.6657 45.6263 92.5533 45.4004 93.9284 41.7864C94.2034 40.8829 95.0284 38.3983 95.0284 37.4948C94.2034 36.1396 92.8283 35.9137 92.4158 35.0102C92.2783 34.7844 94.0659 32.9774 94.0659 32.5256L94.3409 30.2669C94.2034 30.041 90.7657 34.1068 90.7657 37.269V37.4948C90.7657 38.8501 93.3783 40.2053 93.3783 40.2053C92.9658 41.5605 88.1532 44.9486 87.0531 45.4004Z" fill="#7B6E66"/>
<path d="M206.957 0H150.854V54.6612C160.48 45.6263 171.755 40.4312 183.718 40.4312C196.506 40.4312 208.469 46.3039 218.507 56.6941V18.5216C218.507 8.35729 213.282 0 206.957 0Z" fill="#F6B333"/>
<path d="M174.093 51.7251C165.568 51.7251 157.73 55.3391 150.854 61.8894V90.1235C150.854 100.288 156.08 108.645 162.405 108.645H218.507C213.832 76.1194 195.681 51.7251 174.093 51.7251Z" fill="#CF202E"/>
</g>
<defs>
<filter id="filter0_dd_1063_1188" x="0" y="0" width="222.507" height="118" filterUnits="userSpaceOnUse" color-interpolation-filters="sRGB">
<feFlood flood-opacity="0" result="BackgroundImageFix"/>
<feColorMatrix in="SourceAlpha" type="matrix" values="0 0 0 0 0 0 0 0 0 0 0 0 0 0 0 0 0 0 127 0" result="hardAlpha"/>
<feOffset dy="4"/>
<feGaussianBlur stdDeviation="2"/>
<feComposite in2="hardAlpha" operator="out"/>
<feColorMatrix type="matrix" values="0 0 0 0 0 0 0 0 0 0 0 0 0 0 0 0 0 0 0.25 0"/>
<feBlend mode="normal" in2="BackgroundImageFix" result="effect1_dropShadow_1063_1188"/>
<feColorMatrix in="SourceAlpha" type="matrix" values="0 0 0 0 0 0 0 0 0 0 0 0 0 0 0 0 0 0 127 0" result="hardAlpha"/>
<feOffset dy="4"/>
<feGaussianBlur stdDeviation="2"/>
<feComposite in2="hardAlpha" operator="out"/>
<feColorMatrix type="matrix" values="0 0 0 0 0 0 0 0 0 0 0 0 0 0 0 0 0 0 0.25 0"/>
<feBlend mode="normal" in2="effect1_dropShadow_1063_1188" result="effect2_dropShadow_1063_1188"/>
<feBlend mode="normal" in="SourceGraphic" in2="effect2_dropShadow_1063_1188" result="shape"/>
</filter>
</defs>
</svg>
