<svg width="215" height="130" viewBox="0 0 215 130" fill="none" xmlns="http://www.w3.org/2000/svg">
<path d="M57.8534 93.9531C53.1469 93.9531 49.5783 95.5333 49.5783 97.303C49.5783 99.1543 53.1469 100.74 57.8534 100.74C62.0964 100.74 65.9038 99.1572 65.9038 97.303C65.8968 95.5333 62.0894 93.9531 57.8534 93.9531ZM35.0019 93.9531C30.5271 93.9531 26.9375 95.5333 26.9375 97.303C26.9375 99.1543 30.5271 100.74 35.0019 100.74C39.4767 100.74 43.2911 99.1572 43.2911 97.303C43.2911 95.5333 39.4767 93.9531 35.0019 93.9531Z" fill="#057044"/>
<path d="M106.444 61.4313V79.8278H87.8491V34.6675C55.6055 36.4284 53.3856 44.1456 53.3856 51.0202V78.4372C53.3856 78.5654 53.3856 78.6908 53.3645 78.8249C53.196 82.5625 50.4914 87.0786 44.8716 89.8657C39.5468 87.1252 36.8493 82.545 36.6105 78.8249C36.5683 78.6238 36.5683 78.4372 36.5683 78.2506V64.959C36.5683 58.0786 34.3415 50.3701 1.87305 48.5159C17.1027 51.9503 24.0291 57.2447 24.0291 63.478V76.7666C24.0291 77.4372 24.0783 78.1281 24.2118 78.8278C25.1601 84.0582 30.0494 89.8482 44.8646 91.7287C60.6563 89.8482 64.9413 84.0582 65.7422 78.8278C65.8686 78.131 65.8967 77.4372 65.8967 76.7666V49.3526C65.8967 45.2622 68.812 41.5392 75.5277 38.5742V85.3118H141.132V45.3555C108.895 47.1194 106.444 54.4547 106.444 61.4313ZM128.832 79.8278H118.99V59.9445C118.99 55.7608 122.109 52.0465 128.832 48.9736" fill="#057044"/>
<path d="M134.88 34.7549C130.405 34.7549 126.809 36.2476 126.809 38.1047C126.809 39.959 130.412 41.4546 134.88 41.4546C139.123 41.4546 142.937 39.959 142.937 38.1047C142.937 36.2476 139.116 34.7549 134.88 34.7549Z" fill="#057044"/>
<path d="M166.892 25.2769V85.3118H154.346V28.5305L166.892 25.2769Z" fill="#057044"/>
<mask id="mask0_1063_1212" style="mask-type:luminance" maskUnits="userSpaceOnUse" x="180" y="45" width="35" height="61">
<path d="M214.815 45.1572H180.105V105.367H214.815V45.1572Z" fill="white"/>
</mask>
<g mask="url(#mask0_1063_1212)">
<path d="M180.105 61.4313V85.3118H202.283V90.4284C202.283 96.5654 195.328 101.857 180.105 105.3C212.574 103.53 214.815 93.9532 214.815 86.9852V45.2622C182.353 47.1193 180.105 54.4546 180.105 61.4313ZM202.283 79.8278H192.645V59.9444C192.645 55.7608 195.56 51.9503 202.283 48.8861" fill="#057044"/>
</g>
<path d="M34.8543 0C16.6672 0 1.87305 6.13703 1.87305 13.688C1.87305 16.7259 6.53047 21.688 16.1684 28.8455C22.9614 33.9038 29.6771 38.1195 29.937 38.3032L34.8613 41.3878L39.7506 38.3032C40.0456 38.1195 46.7262 33.9038 53.5472 28.8455C63.15 21.688 67.8426 16.7289 67.8426 13.688C67.8356 6.13703 53.0414 0 34.8543 0ZM34.8543 19.1458C26.3333 19.1458 19.449 16.277 19.449 12.7347C19.449 9.20991 26.3263 6.34402 34.8543 6.34402C43.3473 6.34402 50.2596 9.21283 50.2596 12.7347C50.2526 16.277 43.3473 19.1458 34.8543 19.1458Z" fill="#FAB712"/>
<path d="M6.91046 114.711C6.5241 114.711 6.20097 114.656 5.927 114.542C5.66006 114.431 5.51956 114.297 5.51956 114.143C5.51956 113.976 5.65304 113.839 5.927 113.726C6.19394 113.615 6.5241 113.557 6.91046 113.557C7.28278 113.557 7.60592 113.612 7.87989 113.726C8.15385 113.839 8.29434 113.976 8.29434 114.143C8.29434 114.297 8.15385 114.431 7.87989 114.542C7.60592 114.656 7.28278 114.711 6.91046 114.711ZM6.60841 116.218C6.49601 116.21 6.32039 116.192 6.0956 116.175C5.87081 116.157 5.59684 116.146 5.28073 116.146C4.47288 116.146 3.87577 116.218 3.48941 116.361C3.10305 116.504 2.91338 116.691 2.91338 116.921C2.91338 117.172 3.11007 117.364 3.51048 117.504C3.90387 117.641 4.4518 117.711 5.14725 117.711H6.60841V116.218ZM3.44726 114.711C3.0609 114.711 2.73776 114.656 2.4638 114.542C2.19686 114.431 2.06338 114.297 2.06338 114.143C2.06338 113.976 2.19686 113.839 2.4638 113.726C2.73074 113.615 3.0609 113.557 3.44726 113.557C3.81957 113.557 4.14272 113.612 4.41668 113.726C4.69065 113.839 4.83114 113.976 4.83114 114.143C4.83114 114.297 4.69767 114.431 4.41668 114.542C4.14272 114.656 3.81957 114.711 3.44726 114.711ZM10.6476 118.6H5.14725C4.57122 118.6 4.00924 118.565 3.47536 118.501C2.93445 118.434 2.45677 118.335 2.04231 118.198C1.62785 118.061 1.29768 117.889 1.05181 117.679C0.805947 117.469 0.686523 117.218 0.686523 116.924C0.686523 116.694 0.78488 116.481 0.981573 116.285C1.17827 116.087 1.4733 115.915 1.86669 115.769C2.26008 115.624 2.73776 115.507 3.30677 115.423C3.87577 115.338 4.5361 115.294 5.28073 115.294C5.48444 115.294 5.75138 115.303 6.06749 115.318C6.39063 115.335 6.7208 115.353 7.06501 115.379C7.40922 115.402 7.74641 115.434 8.07658 115.469C8.40674 115.507 8.68071 115.545 8.91253 115.58V117.711H10.6406" fill="#5B5C5E"/>
<path d="M20.6643 117.714V117.058C20.6643 116.936 20.6432 116.822 20.6081 116.717C20.5659 116.612 20.4957 116.525 20.3833 116.446C20.2709 116.37 20.1233 116.309 19.9407 116.265C19.7581 116.224 19.5122 116.201 19.2242 116.201C18.894 116.201 18.5006 116.221 18.0581 116.262C17.6155 116.303 17.1659 116.373 16.7023 116.478C16.2387 116.583 15.8031 116.726 15.3816 116.912C14.9672 117.099 14.63 117.338 14.3701 117.63V117.708H20.6643V117.714ZM12.1432 117.714V113.172H14.3771V115.997C14.644 115.892 14.9812 115.796 15.3816 115.708C15.7821 115.624 16.2035 115.551 16.6531 115.49C17.1027 115.428 17.5593 115.382 18.0229 115.35C18.4866 115.318 18.9221 115.3 19.3296 115.3C19.9548 115.3 20.4957 115.326 20.9452 115.385C21.3948 115.44 21.7601 115.533 22.0552 115.665C22.3432 115.796 22.5539 115.965 22.6944 116.178C22.8349 116.391 22.9052 116.656 22.9052 116.968V118.598H10.3027V117.711" fill="#5B5C5E"/>
<path d="M27.0918 115.303H29.4029V119.143C29.4029 119.551 29.1149 119.854 28.5389 120.044C27.9628 120.236 27.2182 120.332 26.305 120.332C26.0099 120.332 25.729 120.321 25.462 120.297C25.1951 120.274 24.9492 120.245 24.7314 120.213V119.408C24.9492 119.44 25.167 119.466 25.3847 119.487C25.6025 119.507 25.7992 119.519 25.9818 119.519C26.3261 119.519 26.6 119.484 26.8037 119.411C27.0004 119.338 27.0988 119.201 27.0988 119" fill="#5B5C5E"/>
<path d="M35.9571 118.598C34.791 118.598 33.8848 118.495 33.2456 118.294C32.6063 118.093 32.2832 117.764 32.2832 117.312V113.169H34.5943V117.312C34.5943 117.478 34.7278 117.586 34.9948 117.635C35.2617 117.688 35.5919 117.711 35.9712 117.711H36.7228V118.598" fill="#5B5C5E"/>
<path d="M41.2119 114.702C40.8256 114.702 40.5024 114.647 40.2285 114.533C39.9615 114.422 39.821 114.288 39.821 114.134C39.821 113.968 39.9545 113.831 40.2285 113.717C40.5024 113.603 40.8256 113.548 41.2119 113.548C41.5842 113.548 41.9074 113.603 42.1813 113.717C42.4553 113.828 42.5958 113.968 42.5958 114.134C42.5958 114.288 42.4623 114.422 42.1813 114.533C41.9074 114.647 41.5842 114.702 41.2119 114.702ZM36.3789 117.711H42.9189V116.697C42.9189 116.597 42.8768 116.513 42.7925 116.446C42.7082 116.379 42.6028 116.329 42.4623 116.294C42.3289 116.259 42.1743 116.236 41.9987 116.221C41.8231 116.207 41.6545 116.201 41.4859 116.201H40.2776C40.095 116.201 39.8983 116.204 39.6805 116.213C39.4628 116.218 39.238 116.233 38.9991 116.248C38.7603 116.265 38.5285 116.283 38.3037 116.309C38.0789 116.332 37.8681 116.361 37.6785 116.393V115.53C38.0508 115.455 38.5004 115.399 39.0132 115.358C39.533 115.318 40.0107 115.297 40.4462 115.297H41.6615C42.1954 115.297 42.6871 115.32 43.1226 115.37C43.5582 115.417 43.9305 115.492 44.2396 115.597C44.5487 115.702 44.7875 115.836 44.9561 116.006C45.1177 116.172 45.202 116.373 45.202 116.609V117.711H46.923V118.597H36.3789" fill="#5B5C5E"/>
<path d="M46.5928 118.598V117.711H47.3444C47.7308 117.711 48.0539 117.685 48.3279 117.635C48.5948 117.586 48.7353 117.478 48.7353 117.312V113.169H51.0464V117.312C51.0464 117.764 50.7233 118.093 50.0841 118.294C49.4448 118.495 48.5386 118.598 47.3725 118.598" fill="#5B5C5E"/>
<path d="M54.1162 118.598H56.4274V113.169H54.1162V118.598Z" fill="#5B5C5E"/>
<path d="M71.2573 116.595C71.2573 116.35 71.3556 116.143 71.5523 115.977C71.7561 115.808 72.016 115.673 72.3391 115.574C72.6693 115.472 73.0416 115.399 73.456 115.356C73.8705 115.309 74.299 115.289 74.7205 115.289C74.9383 115.289 75.2052 115.294 75.5143 115.312C75.8304 115.329 76.1535 115.35 76.4837 115.376C76.8139 115.402 77.1511 115.437 77.4883 115.472C77.8325 115.507 78.1416 115.551 78.4225 115.601V117.717H80.0734V118.603H76.1114V116.224C76.0482 116.216 75.9569 116.207 75.8445 116.201C75.7321 116.195 75.6056 116.192 75.4792 116.184C75.3527 116.178 75.2333 116.175 75.1209 116.175H74.861C74.7205 116.175 74.573 116.184 74.4255 116.201C74.2779 116.222 74.1375 116.251 73.997 116.289C73.8635 116.329 73.7511 116.382 73.6668 116.443C73.5825 116.507 73.5404 116.586 73.5404 116.682V118.367C73.5404 118.633 73.3647 118.848 73.0205 119.009C72.6763 119.172 72.2478 119.294 71.728 119.382C71.2081 119.466 70.6461 119.522 70.042 119.548C69.4379 119.574 68.8759 119.589 68.3491 119.589H68.2718C67.6325 119.589 67.0073 119.566 66.3892 119.513C65.771 119.463 65.216 119.376 64.7313 119.251C64.2466 119.125 63.8532 118.953 63.5511 118.74C63.2491 118.525 63.1016 118.254 63.1016 117.921V116.396H65.4127V117.88C65.4127 118.052 65.497 118.187 65.6656 118.291C65.8272 118.394 66.052 118.478 66.3259 118.539C66.5999 118.601 66.916 118.641 67.2602 118.662C67.6044 118.682 67.9627 118.694 68.335 118.694C68.623 118.694 68.9321 118.691 69.2693 118.685C69.6065 118.679 69.9226 118.668 70.2106 118.65C70.4986 118.633 70.7445 118.601 70.9412 118.563C71.1379 118.522 71.2362 118.466 71.2362 118.399" fill="#5B5C5E"/>
<path d="M86.6265 118.598C86.0013 118.598 85.4533 118.571 84.9897 118.513C84.5261 118.458 84.1046 118.391 83.7182 118.318C83.4653 118.408 83.1281 118.478 82.7207 118.525C82.3132 118.574 81.8566 118.598 81.3579 118.598H79.7422V117.711H81.2595C82.1306 117.711 82.5732 117.522 82.5732 117.146V113.169H84.8773V117.21C84.8773 117.294 84.8633 117.367 84.8211 117.426C84.779 117.484 84.7438 117.536 84.7087 117.577C84.8984 117.618 85.1442 117.653 85.4323 117.676C85.7203 117.702 86.0223 117.711 86.3244 117.711H87.7504V118.598" fill="#5B5C5E"/>
<path d="M93.7438 116.099C93.1888 116.099 92.7181 116.181 92.3177 116.344C91.9243 116.507 91.7276 116.732 91.7276 117.02C91.7276 117.116 91.7839 117.23 91.8892 117.358C91.9946 117.49 92.1632 117.606 92.3809 117.714H96.3851V118.6H87.4004V117.714H89.7888C89.6905 117.58 89.6062 117.452 89.557 117.323C89.5078 117.198 89.4797 117.087 89.4797 116.997C89.4797 116.72 89.5851 116.472 89.7888 116.256C89.9925 116.038 90.2805 115.854 90.6458 115.708C91.0111 115.562 91.4396 115.452 91.9243 115.373C92.409 115.294 92.9359 115.256 93.4979 115.256C93.9826 115.256 94.4181 115.277 94.8045 115.32C95.1909 115.364 95.5702 115.428 95.9355 115.519V116.428C95.5772 116.306 95.219 116.221 94.8677 116.172C94.5165 116.125 94.1442 116.099 93.7438 116.099Z" fill="#5B5C5E"/>
<path d="M104.188 115.303H106.5V117.714H108.207V118.601H106.5V119.143C106.5 119.551 106.212 119.854 105.636 120.044C105.06 120.236 104.315 120.332 103.402 120.332C103.107 120.332 102.826 120.321 102.559 120.297C102.292 120.274 102.046 120.245 101.828 120.213V119.408C102.046 119.44 102.264 119.466 102.481 119.487C102.699 119.507 102.896 119.519 103.079 119.519C103.423 119.519 103.697 119.484 103.893 119.411C104.097 119.338 104.195 119.201 104.195 119" fill="#5B5C5E"/>
<path d="M113.574 120.516C113.188 120.516 112.865 120.461 112.591 120.35C112.324 120.239 112.184 120.105 112.184 119.95C112.184 119.784 112.317 119.647 112.591 119.534C112.858 119.423 113.188 119.364 113.574 119.364C113.947 119.364 114.27 119.423 114.544 119.534C114.818 119.644 114.958 119.784 114.958 119.95C114.958 120.105 114.818 120.239 114.544 120.35C114.27 120.458 113.947 120.516 113.574 120.516ZM110.111 120.516C109.725 120.516 109.395 120.461 109.128 120.35C108.861 120.239 108.727 120.105 108.727 119.95C108.727 119.784 108.861 119.647 109.128 119.534C109.395 119.423 109.725 119.364 110.111 119.364C110.484 119.364 110.807 119.423 111.081 119.534C111.355 119.644 111.495 119.784 111.495 119.95C111.495 120.105 111.355 120.239 111.081 120.35C110.807 120.458 110.484 120.516 110.111 120.516ZM114.748 118.601C114.122 118.601 113.574 118.571 113.111 118.516C112.647 118.461 112.226 118.397 111.846 118.321C111.586 118.411 111.256 118.481 110.842 118.528C110.434 118.577 109.978 118.601 109.479 118.601H107.863V117.714H109.381C110.252 117.714 110.687 117.525 110.687 117.146V115.303H112.998V117.213C112.998 117.297 112.977 117.37 112.935 117.429C112.9 117.487 112.858 117.539 112.823 117.58C113.012 117.621 113.258 117.656 113.539 117.679C113.834 117.703 114.129 117.714 114.438 117.714H115.857V118.601" fill="#5B5C5E"/>
<path d="M120.135 120.507C119.749 120.507 119.425 120.452 119.152 120.338C118.885 120.227 118.744 120.093 118.744 119.939C118.744 119.773 118.878 119.636 119.152 119.522C119.418 119.411 119.749 119.353 120.135 119.353C120.507 119.353 120.83 119.408 121.104 119.522C121.378 119.633 121.519 119.773 121.519 119.939C121.519 120.093 121.378 120.227 121.104 120.338C120.83 120.452 120.507 120.507 120.135 120.507ZM115.534 117.714H122.074V116.7C122.074 116.601 122.032 116.516 121.947 116.449C121.863 116.382 121.758 116.332 121.617 116.297C121.484 116.262 121.329 116.239 121.154 116.227C120.985 116.213 120.809 116.207 120.641 116.207H119.425C119.243 116.207 119.046 116.21 118.828 116.219C118.611 116.227 118.386 116.239 118.147 116.254C117.908 116.271 117.676 116.289 117.452 116.315C117.227 116.341 117.016 116.367 116.826 116.399V115.536C117.199 115.461 117.641 115.405 118.161 115.364C118.681 115.324 119.159 115.303 119.594 115.303H120.802C121.343 115.303 121.828 115.327 122.263 115.373C122.699 115.423 123.071 115.499 123.38 115.601C123.689 115.706 123.921 115.84 124.09 116.009C124.258 116.178 124.343 116.379 124.343 116.612V118.601H115.513" fill="#5B5C5E"/>
<path d="M130.539 118.598C129.373 118.598 128.466 118.496 127.827 118.294C127.188 118.093 126.865 117.764 126.865 117.312V113.169H129.176V117.312C129.176 117.478 129.309 117.586 129.576 117.636C129.843 117.688 130.173 117.711 130.56 117.711H131.311V118.598H130.539ZM125.945 112.42H126.717C126.675 112.382 126.647 112.335 126.619 112.28C126.591 112.225 126.577 112.181 126.577 112.149C126.577 112.018 126.626 111.901 126.731 111.808C126.837 111.711 126.97 111.636 127.146 111.577C127.321 111.519 127.518 111.472 127.75 111.446C127.982 111.417 128.221 111.402 128.459 111.402C128.663 111.402 128.867 111.417 129.056 111.443C129.246 111.469 129.464 111.51 129.689 111.571V112.108C129.569 112.076 129.415 112.044 129.218 112.009C129.021 111.974 128.825 111.953 128.628 111.948C128.438 111.942 128.27 111.953 128.136 111.983C128.003 112.012 127.933 112.076 127.933 112.169C127.933 112.195 127.947 112.236 127.982 112.289C128.017 112.341 128.059 112.388 128.129 112.426H129.689V112.93H125.938" fill="#5B5C5E"/>
<path d="M136.58 114.702C136.194 114.702 135.87 114.647 135.597 114.533C135.33 114.422 135.189 114.288 135.189 114.134C135.189 113.968 135.323 113.831 135.597 113.717C135.87 113.603 136.194 113.548 136.58 113.548C136.952 113.548 137.275 113.603 137.549 113.717C137.823 113.828 137.964 113.968 137.964 114.134C137.964 114.288 137.823 114.422 137.549 114.533C137.275 114.647 136.952 114.702 136.58 114.702ZM133.117 114.702C132.73 114.702 132.4 114.647 132.133 114.533C131.866 114.422 131.733 114.288 131.733 114.134C131.733 113.968 131.866 113.831 132.133 113.717C132.4 113.606 132.73 113.548 133.117 113.548C133.489 113.548 133.812 113.603 134.086 113.717C134.36 113.828 134.501 113.968 134.501 114.134C134.501 114.288 134.36 114.422 134.086 114.533C133.812 114.647 133.489 114.702 133.117 114.702ZM137.844 118.597C137.219 118.597 136.671 118.571 136.208 118.513C135.744 118.457 135.323 118.393 134.936 118.318C134.676 118.408 134.346 118.478 133.932 118.525C133.524 118.574 133.068 118.597 132.569 118.597H130.953V117.711H132.478C133.349 117.711 133.784 117.522 133.784 117.146V115.3H136.095V117.21C136.095 117.294 136.074 117.367 136.032 117.425C135.997 117.484 135.955 117.536 135.92 117.577C136.109 117.621 136.355 117.653 136.643 117.676C136.931 117.699 137.226 117.711 137.535 117.711H138.954V118.597" fill="#5B5C5E"/>
<path d="M138.659 118.598V117.711H139.411C139.797 117.711 140.12 117.685 140.387 117.635C140.654 117.586 140.795 117.478 140.795 117.312V113.169H143.106V117.312C143.106 117.764 142.783 118.093 142.143 118.294C141.504 118.495 140.598 118.598 139.432 118.598" fill="#5B5C5E"/>
<path d="M146.176 118.598H148.487V113.169H146.176V118.598Z" fill="#5B5C5E"/>
<path d="M161.104 116.219C160.984 116.21 160.816 116.195 160.591 116.175C160.366 116.157 160.092 116.146 159.769 116.146C158.961 116.146 158.364 116.219 157.985 116.361C157.598 116.504 157.409 116.691 157.409 116.921C157.409 117.169 157.612 117.367 158.006 117.504C158.406 117.641 158.947 117.711 159.642 117.711H161.104V116.219ZM161.089 118.598H159.649C159.073 118.598 158.511 118.566 157.97 118.499C157.437 118.431 156.952 118.332 156.537 118.195C156.116 118.058 155.786 117.886 155.547 117.676C155.301 117.466 155.182 117.216 155.182 116.921C155.182 116.694 155.28 116.478 155.484 116.283C155.68 116.087 155.982 115.915 156.369 115.77C156.762 115.624 157.24 115.507 157.809 115.423C158.378 115.338 159.038 115.294 159.776 115.294C159.98 115.294 160.247 115.303 160.563 115.318C160.886 115.335 161.216 115.356 161.567 115.379C161.911 115.405 162.249 115.434 162.579 115.472C162.902 115.51 163.183 115.548 163.415 115.583V118.784C163.415 119.087 163.281 119.341 163 119.542C162.726 119.743 162.375 119.907 161.954 120.023C161.532 120.146 161.061 120.23 160.549 120.28C160.036 120.329 159.537 120.356 159.045 120.356C157.963 120.356 156.987 120.268 156.102 120.093V119.201C156.629 119.324 157.113 119.411 157.563 119.466C158.013 119.522 158.504 119.551 159.045 119.551C159.607 119.551 160.092 119.487 160.485 119.359C160.879 119.23 161.082 119.032 161.082 118.761" fill="#5B5C5E"/>
<path d="M168.802 118.598H166.491V113.169H168.802V118.598ZM165.374 112.42H166.147C166.105 112.382 166.077 112.335 166.056 112.28C166.028 112.225 166.013 112.181 166.013 112.149C166.013 112.018 166.063 111.904 166.168 111.808C166.273 111.711 166.407 111.636 166.582 111.577C166.758 111.519 166.955 111.472 167.187 111.446C167.418 111.417 167.657 111.402 167.896 111.402C168.1 111.402 168.304 111.414 168.493 111.443C168.683 111.469 168.901 111.513 169.125 111.571V112.108C169.006 112.076 168.851 112.044 168.648 112.009C168.451 111.974 168.254 111.953 168.065 111.948C167.875 111.942 167.706 111.953 167.573 111.983C167.439 112.012 167.369 112.073 167.369 112.169C167.369 112.195 167.383 112.236 167.418 112.289C167.454 112.341 167.496 112.388 167.559 112.426H169.118V112.93H165.367" fill="#5B5C5E"/>
<path d="M182.36 116.085C181.938 116.085 181.566 116.102 181.257 116.137C180.941 116.172 180.681 116.216 180.477 116.266C180.273 116.318 180.119 116.37 180.013 116.429C179.915 116.487 179.859 116.54 179.859 116.589C179.859 116.653 179.943 116.732 180.098 116.831C180.259 116.93 180.463 117.032 180.716 117.134C180.969 117.239 181.236 117.341 181.531 117.44C181.826 117.542 182.1 117.633 182.36 117.712C182.62 117.633 182.88 117.542 183.146 117.44C183.413 117.338 183.659 117.236 183.884 117.134C184.109 117.032 184.291 116.93 184.432 116.831C184.572 116.732 184.643 116.65 184.643 116.589C184.643 116.54 184.608 116.487 184.53 116.429C184.453 116.37 184.32 116.315 184.137 116.266C183.954 116.216 183.715 116.172 183.427 116.137C183.139 116.102 182.781 116.085 182.36 116.085ZM179.241 117.712C178.868 117.531 178.531 117.338 178.229 117.137C177.927 116.936 177.78 116.752 177.78 116.586C177.78 116.324 177.941 116.108 178.25 115.936C178.559 115.764 178.953 115.624 179.416 115.522C179.88 115.417 180.372 115.344 180.906 115.306C181.439 115.266 181.924 115.245 182.36 115.245C182.992 115.245 183.575 115.274 184.13 115.33C184.685 115.385 185.163 115.47 185.57 115.58C185.977 115.691 186.308 115.831 186.553 115.997C186.799 116.166 186.919 116.362 186.919 116.586C186.919 116.665 186.877 116.752 186.785 116.846C186.694 116.939 186.582 117.035 186.441 117.134C186.301 117.233 186.139 117.33 185.963 117.432C185.781 117.531 185.605 117.624 185.422 117.714H187.832V118.601H179.922C179.346 118.601 178.868 118.639 178.489 118.717C178.11 118.796 177.92 118.889 177.92 119C177.92 119.111 178.082 119.201 178.412 119.268C178.742 119.335 179.149 119.368 179.655 119.368H181.425V120.333H179.599C179.009 120.333 178.475 120.303 177.997 120.242C177.52 120.181 177.105 120.091 176.768 119.974C176.431 119.854 176.164 119.714 175.981 119.551C175.792 119.385 175.7 119.204 175.7 119C175.7 118.65 176.016 118.359 176.649 118.126C177.253 117.892 178.131 117.755 179.241 117.712Z" fill="#5B5C5E"/>
<path d="M193.193 120.516C192.806 120.516 192.483 120.461 192.209 120.35C191.942 120.239 191.802 120.105 191.802 119.95C191.802 119.784 191.935 119.647 192.209 119.534C192.476 119.423 192.806 119.364 193.193 119.364C193.565 119.364 193.888 119.423 194.162 119.534C194.436 119.644 194.577 119.784 194.577 119.95C194.577 120.105 194.436 120.239 194.162 120.35C193.888 120.458 193.558 120.516 193.193 120.516ZM189.73 120.516C189.343 120.516 189.013 120.461 188.746 120.35C188.479 120.239 188.346 120.105 188.346 119.95C188.346 119.784 188.479 119.647 188.746 119.534C189.02 119.423 189.343 119.364 189.73 119.364C190.102 119.364 190.425 119.423 190.699 119.534C190.973 119.644 191.113 119.784 191.113 119.95C191.113 120.105 190.973 120.239 190.699 120.35C190.418 120.458 190.095 120.516 189.73 120.516ZM194.366 118.601C193.741 118.601 193.193 118.571 192.729 118.516C192.266 118.461 191.844 118.397 191.458 118.321C191.198 118.411 190.868 118.481 190.453 118.528C190.039 118.577 189.589 118.601 189.09 118.601H187.475V117.714H188.999C189.87 117.714 190.306 117.525 190.306 117.146V115.303H192.617V117.213C192.617 117.297 192.596 117.37 192.554 117.429C192.518 117.487 192.476 117.539 192.441 117.58C192.631 117.621 192.877 117.656 193.158 117.679C193.453 117.703 193.748 117.714 194.057 117.714H195.476V118.601" fill="#5B5C5E"/>
<path d="M199.058 120.507C198.672 120.507 198.349 120.452 198.075 120.338C197.808 120.227 197.667 120.093 197.667 119.939C197.667 119.773 197.801 119.636 198.075 119.522C198.349 119.408 198.672 119.353 199.058 119.353C199.431 119.353 199.754 119.408 200.028 119.522C200.302 119.633 200.442 119.773 200.442 119.939C200.442 120.093 200.302 120.227 200.028 120.338C199.754 120.452 199.431 120.507 199.058 120.507ZM202.037 118.598C201.412 118.598 200.864 118.569 200.4 118.513C199.936 118.458 199.515 118.391 199.129 118.318C198.869 118.408 198.538 118.478 198.124 118.525C197.717 118.574 197.26 118.598 196.761 118.598H195.146V117.711H196.67C197.541 117.711 197.976 117.522 197.976 117.143V115.3H200.288V117.207C200.288 117.292 200.267 117.364 200.224 117.423C200.189 117.481 200.147 117.534 200.112 117.574C200.302 117.615 200.548 117.65 200.836 117.673C201.124 117.697 201.419 117.708 201.728 117.708H203.147V118.595" fill="#5B5C5E"/>
<path d="M202.845 118.598V117.711H203.596C203.983 117.711 204.313 117.685 204.58 117.635C204.847 117.586 204.987 117.478 204.987 117.312V113.169H207.298V117.312C207.298 117.764 206.975 118.093 206.336 118.294C205.697 118.495 204.791 118.598 203.624 118.598" fill="#5B5C5E"/>
<path d="M210.368 118.598H212.679V113.169H210.368V118.598Z" fill="#5B5C5E"/>
<mask id="mask1_1063_1212" style="mask-type:luminance" maskUnits="userSpaceOnUse" x="0" y="125" width="11" height="5">
<path d="M10.8438 125.178H0.306641V130H10.8438V125.178Z" fill="white"/>
</mask>
<g mask="url(#mask1_1063_1212)">
<path d="M2.46306 127.624C2.46306 128.569 3.60809 129.318 5.568 129.318C7.54195 129.318 8.65187 128.56 8.65187 127.589C8.65187 126.714 7.60518 125.889 5.568 125.889C3.54487 125.889 2.46306 126.668 2.46306 127.624ZM10.8155 127.557C10.8155 129.114 8.53947 130 5.4556 130C2.30149 130 0.313477 129.003 0.313477 127.639C0.313477 126.213 2.47008 125.207 5.6242 125.207C8.89071 125.207 10.8155 126.233 10.8155 127.557Z" fill="#5B5C5E"/>
</g>
<path d="M13.8994 125.283H20.3552V125.979H15.9436V127.259H20.0601V127.956H15.9436V129.927H13.8994" fill="#5B5C5E"/>
<path d="M23.6709 125.283H30.1267V125.979H25.7151V127.259H29.8317V127.956H25.7151V129.927H23.6709" fill="#5B5C5E"/>
<path d="M32.7676 128.382H36.9965V127.796H32.7676V128.382Z" fill="#5B5C5E"/>
<path d="M42.0271 127.508C42.2799 127.534 42.6101 127.543 43.0246 127.543C44.549 127.543 45.4832 127.233 45.4832 126.688C45.4832 126.172 44.6192 125.898 43.2072 125.898C42.6452 125.898 42.2448 125.919 42.0271 125.939V127.508ZM40.0039 125.344C40.7345 125.289 41.7461 125.248 43.1229 125.248C44.6192 125.248 45.7151 125.379 46.4246 125.627C47.0919 125.854 47.5204 126.219 47.5204 126.653C47.5204 127.094 47.1903 127.458 46.558 127.706C45.7432 128.044 44.4647 128.201 43.0246 128.201C42.6452 128.201 42.294 128.193 42.0271 128.175V129.924H40.0039" fill="#5B5C5E"/>
<path d="M50.6035 125.283H52.6477V129.216H57.2489V129.924H50.6105" fill="#5B5C5E"/>
<path d="M65.6227 127.968L64.7446 126.825C64.5268 126.542 64.3442 126.224 64.1826 125.956H64.1475C63.9789 126.224 63.8173 126.548 63.6136 126.825L62.7496 127.968H65.6227ZM62.4194 128.609L61.457 129.924H59.3496L62.9322 125.283H65.5384L69.1702 129.924H66.9785L65.9669 128.609" fill="#5B5C5E"/>
<path d="M72.0645 129.924V125.283H74.3897L77.2768 127.274C78.0214 127.793 78.6677 128.326 79.1805 128.831H79.2157C79.0822 128.21 79.033 127.612 79.033 126.904V125.283H80.9227V129.924H78.8152L75.8929 127.886C75.1764 127.376 74.4318 126.805 73.8839 126.283L73.8347 126.289C73.919 126.889 73.9331 127.501 73.9331 128.265V129.927" fill="#5B5C5E"/>
<mask id="mask2_1063_1212" style="mask-type:luminance" maskUnits="userSpaceOnUse" x="88" y="125" width="9" height="5">
<path d="M96.4055 125.178H88.6572V130H96.4055V125.178Z" fill="white"/>
</mask>
<g mask="url(#mask2_1063_1212)">
<path d="M89.3246 129.003C89.9849 129.16 90.9824 129.3 92.0291 129.3C93.3427 129.3 94.0733 129.044 94.0733 128.668C94.0733 128.318 93.5113 128.111 92.0783 127.895C90.2308 127.621 89.0577 127.213 89.0577 126.545C89.0577 125.787 90.582 125.21 93.0056 125.21C94.2138 125.21 95.113 125.321 95.696 125.443L95.1973 126.125C94.7969 126.035 94.0171 125.904 92.9775 125.904C91.6849 125.904 91.1159 126.192 91.1159 126.461C91.1159 126.819 91.7622 126.985 93.2584 127.225C95.1973 127.528 96.1456 127.933 96.1456 128.604C96.1456 129.347 94.7898 129.994 91.8956 129.994C90.7155 129.994 89.4862 129.857 88.875 129.706" fill="#5B5C5E"/>
</g>
<path d="M104.757 127.968L103.879 126.825C103.662 126.542 103.479 126.224 103.317 125.956H103.282C103.121 126.224 102.952 126.548 102.755 126.825L101.891 127.968H104.757ZM101.554 128.609L100.592 129.924H98.4844L102.067 125.283H104.673L108.305 129.924H106.113L105.102 128.609" fill="#5B5C5E"/>
<path d="M111.192 125.283H113.23V129.216H117.831V129.924H111.192" fill="#5B5C5E"/>
<path d="M126.955 127.866H122.74V129.23H127.454V129.927H120.703V125.286H127.208V125.982H122.74V127.181H126.955" fill="#5B5C5E"/>
<mask id="mask3_1063_1212" style="mask-type:luminance" maskUnits="userSpaceOnUse" x="129" y="125" width="9" height="5">
<path d="M137.634 125.178H129.886V130H137.634V125.178Z" fill="white"/>
</mask>
<g mask="url(#mask3_1063_1212)">
<path d="M130.525 129.003C131.185 129.16 132.183 129.3 133.23 129.3C134.543 129.3 135.274 129.044 135.274 128.668C135.274 128.318 134.705 128.111 133.279 127.895C131.438 127.621 130.258 127.213 130.258 126.545C130.258 125.787 131.789 125.21 134.206 125.21C135.414 125.21 136.313 125.321 136.896 125.443L136.398 126.125C135.997 126.035 135.218 125.904 134.171 125.904C132.878 125.904 132.309 126.192 132.309 126.461C132.309 126.819 132.956 126.985 134.452 127.225C136.398 127.528 137.339 127.933 137.339 128.604C137.339 129.347 135.983 129.994 133.089 129.994C131.909 129.994 130.68 129.857 130.068 129.706" fill="#5B5C5E"/>
</g>
<mask id="mask4_1063_1212" style="mask-type:luminance" maskUnits="userSpaceOnUse" x="144" y="125" width="12" height="5">
<path d="M155.301 125.178H144.455V130H155.301V125.178Z" fill="white"/>
</mask>
<g mask="url(#mask4_1063_1212)">
<path d="M146.858 127.624C146.858 128.569 148.003 129.318 149.963 129.318C151.937 129.318 153.047 128.56 153.047 127.589C153.047 126.714 152 125.889 149.963 125.889C147.933 125.889 146.858 126.668 146.858 127.624ZM155.203 127.557C155.203 129.114 152.927 130 149.844 130C146.689 130 144.694 129.003 144.694 127.639C144.694 126.213 146.851 125.207 150.005 125.207C153.279 125.207 155.203 126.233 155.203 127.557Z" fill="#5B5C5E"/>
</g>
<path d="M160.316 127.397H161.524C162.901 127.397 163.765 127.094 163.765 126.633C163.765 126.123 162.901 125.889 161.574 125.889C160.927 125.889 160.506 125.91 160.309 125.93V127.397H160.316ZM158.293 125.344C159.052 125.289 160.197 125.248 161.377 125.248C162.985 125.248 164.081 125.359 164.826 125.618C165.444 125.831 165.788 126.155 165.788 126.548C165.788 127.146 164.812 127.554 163.765 127.712V127.732C164.566 127.857 165.044 128.181 165.325 128.63C165.669 129.207 165.971 129.747 166.203 129.924H164.095C163.927 129.787 163.66 129.408 163.351 128.828C163.035 128.222 162.501 128.029 161.342 128.015H160.316V129.922H158.293" fill="#5B5C5E"/>
<path d="M175.848 127.397H177.057C178.433 127.397 179.297 127.094 179.297 126.633C179.297 126.123 178.433 125.889 177.106 125.889C176.459 125.889 176.038 125.91 175.841 125.93V127.397H175.848ZM173.825 125.344C174.584 125.289 175.729 125.248 176.909 125.248C178.518 125.248 179.614 125.359 180.358 125.618C180.976 125.831 181.321 126.155 181.321 126.548C181.321 127.146 180.344 127.554 179.297 127.712V127.732C180.098 127.857 180.576 128.181 180.857 128.63C181.208 129.207 181.503 129.747 181.735 129.924H179.628C179.459 129.787 179.199 129.408 178.883 128.828C178.567 128.222 178.033 128.029 176.874 128.015H175.848V129.922H173.825" fill="#5B5C5E"/>
<path d="M190.853 127.866H186.638V129.23H191.352V129.927H184.594V125.286H191.099V125.982H186.631V127.181H190.846" fill="#5B5C5E"/>
<path d="M194.464 129.924V125.283H196.789L199.676 127.274C200.421 127.793 201.067 128.326 201.58 128.831H201.615C201.482 128.21 201.432 127.612 201.432 126.904V125.283H203.322V129.924H201.215L198.292 127.886C197.576 127.376 196.831 126.805 196.29 126.283L196.241 126.289C196.325 126.889 196.339 127.501 196.339 128.265V129.927" fill="#5B5C5E"/>
<path d="M209.152 125.991H205.963V125.283H214.407V125.991H211.189V129.924H209.145" fill="#5B5C5E"/>
</svg>
