<svg width="260" height="130" viewBox="0 0 260 130" fill="none" xmlns="http://www.w3.org/2000/svg">
<path d="M150.096 84.9291V84.9857V103.258C151.191 103.258 254.682 76.9121 254.682 76.9121C258.569 75.9206 259.768 74.9857 259.768 72.8611V53.7676C259.742 56.1472 256.612 57.9885 253.326 58.8101L150.096 84.9291Z" fill="#00AB84"/>
<path d="M150.096 111.671V111.728V130C151.191 130 254.682 103.654 254.682 103.654C258.569 102.663 259.768 101.728 259.768 99.6032V80.5098C259.742 82.8894 256.612 84.7307 253.326 85.5523L150.096 111.671Z" fill="#00594F"/>
<path d="M156.642 49.0368L164.467 50.9632C175.16 48.2436 188.175 44.9575 202.78 41.2748L150.096 28.3003V44.5043C150.096 46.8555 151.869 47.8754 156.642 49.0368Z" fill="#C7C8C9"/>
<path d="M221.194 36.6289L156.642 20.7365C151.869 19.5751 150.096 18.5552 150.096 16.204V0L256.143 26.119C255.048 27.5071 252.909 28.5836 250.666 29.1785H250.64L221.194 36.6289Z" fill="#C7C8C9"/>
<path d="M148.739 58.3569L133.664 80.7082C135.177 80.3399 254.682 50.0283 254.682 50.0283C258.568 49.0368 259.768 48.1019 259.768 45.9773V26.8838C259.742 29.2634 256.612 31.1047 253.326 31.9263L148.739 58.3569Z" fill="#4CC2BF"/>
<path d="M5.52487 35.1562V53.4848C5.52487 54.8163 5.3423 55.6944 4.95107 56.2044C4.55985 56.6859 4.01214 56.9409 3.22969 56.9409C2.52549 56.9409 1.69089 56.6859 0.751953 56.2044V61.3318C2.52549 61.9834 4.03822 62.295 5.21189 62.295C6.56813 62.295 7.74179 61.9834 8.70681 61.3318C9.67182 60.6803 10.376 59.7454 10.8194 58.5273C11.2628 57.3092 11.4975 55.4678 11.4975 53.0032V33.6548L5.52487 35.1562Z" fill="#54565B"/>
<path d="M24.9824 25.4111L19.0098 26.9409V45.0995C19.0098 47.5641 19.2445 49.4055 19.6879 50.6236C20.1313 51.8417 20.8355 52.7766 21.8005 53.4281C22.7655 54.0797 23.9131 54.3913 25.2432 54.3913L91.0468 54.363C92.2466 54.3063 93.2898 53.9947 94.1766 53.3998C95.1416 52.7483 95.8458 51.8134 96.2892 50.5953C96.7326 49.3771 96.9673 47.5358 96.9673 45.0712V35.2978L90.9947 36.8276V44.193C90.9947 45.4961 90.8121 46.4026 90.4209 46.9126C90.1079 47.3375 89.6384 47.5641 89.0385 47.6208H78.3451L78.2669 45.7228C78.2669 44.0514 77.98 42.4083 77.4062 40.5953C76.8324 38.7822 75.8674 37.2242 74.5372 35.8644C73.2071 34.533 71.4596 33.4565 69.3209 32.6916C67.1823 31.9267 64.548 31.5301 61.4443 31.5301C60.2707 31.5301 59.2535 31.5584 58.445 31.5868C57.6364 31.6151 58.3146 31.7001 57.6886 31.7567L57.1409 37.989C57.7668 37.9041 58.5232 37.8474 59.3839 37.8191C60.2446 37.7907 61.2096 37.7624 62.2529 37.7624C64.1046 37.7624 65.6695 37.9324 66.9475 38.3007C68.2255 38.6689 69.2688 39.2355 70.0773 40.0287C70.8858 40.8219 71.4857 41.8417 71.8248 43.1165C72.1638 44.3347 72.3464 45.8361 72.3464 47.6208H26.9385C26.3387 47.5641 25.8953 47.3375 25.5562 46.9126C25.165 46.431 24.9824 45.5245 24.9824 44.193V25.4111Z" fill="#54565B"/>
<path d="M108.156 60.4819C108.547 60.4819 109.016 60.6518 109.434 60.8218C109.903 61.0768 110.216 61.2467 110.477 61.4167V58.3289C110.007 58.0739 109.512 57.819 109.121 57.649C108.651 57.479 108.26 57.394 107.764 57.394C107.217 57.394 106.643 57.479 106.173 57.649C105.626 57.819 105.208 58.0739 104.817 58.4139C104.504 58.6688 104.191 59.1787 103.957 59.717C103.722 60.3119 103.644 60.9351 103.644 61.7C103.644 61.87 103.644 62.1249 103.722 62.4649C103.8 62.7198 103.878 63.0598 103.957 63.2297H102.287H102.131V65.9776H110.373V63.1448H106.956C106.799 62.9748 106.721 62.7198 106.643 62.3799C106.565 62.0399 106.565 61.87 106.565 61.7C106.565 61.1901 106.721 60.8501 107.034 60.6518C107.347 60.4819 107.764 60.4819 108.156 60.4819Z" fill="#54565B"/>
<path d="M83.3264 58.584C82.4136 58.584 81.6311 58.9239 80.953 59.6605C80.2749 60.397 79.9619 61.2469 79.9619 62.3234C79.9619 63.3149 80.2749 64.1647 80.953 64.9013C81.5529 65.6378 82.4136 65.9778 83.3264 65.9778C84.2393 65.9778 85.0739 65.5528 85.6998 64.9013C86.378 64.1647 86.6909 63.3149 86.6909 62.3234C86.6909 61.2469 86.378 60.4253 85.6998 59.6605C84.9956 58.9239 84.2393 58.584 83.3264 58.584Z" fill="#54565B"/>
<path d="M91.8294 58.584C90.9165 58.584 90.1341 58.9239 89.4559 59.6605C88.7778 60.397 88.4648 61.2469 88.4648 62.3234C88.4648 63.3149 88.7778 64.1647 89.4559 64.9013C90.0558 65.6378 90.9165 65.9778 91.8294 65.9778C92.7422 65.9778 93.5247 65.5528 94.2028 64.9013C94.8809 64.1647 95.1939 63.3149 95.1939 62.3234C95.1939 61.2469 94.8809 60.4253 94.2028 59.6605C93.4986 58.9239 92.7422 58.584 91.8294 58.584Z" fill="#54565B"/>
<path d="M62.6438 58.584C61.731 58.584 60.9485 58.9239 60.2704 59.6605C59.5923 60.397 59.2793 61.2469 59.2793 62.3234C59.2793 63.3149 59.5923 64.1647 60.2704 64.9013C60.8703 65.6378 61.731 65.9778 62.6438 65.9778C63.5567 65.9778 64.3913 65.5528 65.0172 64.9013C65.6954 64.1647 66.0083 63.3149 66.0083 62.3234C66.0083 61.2469 65.6954 60.4253 65.0172 59.6605C64.313 58.9239 63.5567 58.584 62.6438 58.584Z" fill="#54565B"/>
<path d="M104.452 25.4111V54.3629H110.451V23.9097L104.452 25.4111Z" fill="#54565B"/>
<path d="M5.31686 105.921H20.1833V99.9436H6.64702V94.9294H18.6445V88.9237H6.64702V83.513H20.1833V77.6206H5.31686C2.76087 77.6206 0.700437 79.8586 0.700437 82.6348V100.878C0.674356 103.683 2.76087 105.921 5.31686 105.921Z" fill="#54565B"/>
<path d="M109.461 104.873C107.583 102.068 105.679 99.2637 103.749 96.4875C105.079 95.7509 106.2 94.7028 107.061 93.3147C108.052 91.6999 108.574 89.7736 108.574 87.5923C108.574 86.1758 108.339 84.8161 107.896 83.5979C107.452 82.3798 106.826 81.3033 106.018 80.4251C105.209 79.5469 104.244 78.8387 103.097 78.3571C101.975 77.8756 100.723 77.6206 99.3931 77.6206H90.9688C89.0649 77.6206 87.5 79.3203 87.5 81.3883V105.893H93.4727V97.309H97.2284C98.1152 98.6971 99.0019 100.057 99.8887 101.388C100.828 102.805 101.819 104.249 102.81 105.638L102.992 105.893H110.165L109.461 104.873ZM93.4727 83.5413H99.3671C100.071 83.5413 100.645 83.6829 101.036 83.9379C101.454 84.2212 101.767 84.5611 102.001 84.9577C102.236 85.3826 102.393 85.8359 102.471 86.2892C102.549 86.7991 102.601 87.224 102.601 87.5639C102.601 88.2155 102.497 88.8104 102.314 89.2637C102.106 89.7452 101.845 90.1702 101.558 90.4818C101.245 90.7934 100.932 91.02 100.541 91.19C100.15 91.36 99.7844 91.4166 99.4192 91.4166H93.4987V83.5413H93.4727Z" fill="#54565B"/>
<path d="M40.3963 78.9804V94.9011C40.3963 95.3827 40.3441 95.9493 40.2398 96.5725C40.1615 97.1391 39.9529 97.734 39.692 98.2722C39.4312 98.8104 39.04 99.2354 38.5445 99.6036C38.075 99.9436 37.3969 100.114 36.5623 100.114C36.0667 100.114 35.6494 100.029 35.3104 99.8869C34.9452 99.717 34.6322 99.5187 34.3714 99.292C34.1106 99.0654 33.8759 98.7821 33.6672 98.4705C33.4586 98.1589 33.3021 97.8473 33.1978 97.5357L32.963 96.9124L27.5381 99.547L27.7989 100.142C28.5553 101.983 29.7289 103.456 31.2417 104.505C32.7544 105.553 34.554 106.091 36.6144 106.091C38.075 106.091 39.4052 105.808 40.6049 105.298C41.8046 104.759 42.8479 103.995 43.7086 103.003C44.5693 102.012 45.2474 100.822 45.6908 99.4337C46.1603 98.0739 46.395 96.5442 46.395 94.9011V77.479L40.3963 78.9804Z" fill="#54565B"/>
<path d="M66.9217 78.3288C66.7652 77.9322 66.4001 77.6772 66.0089 77.6772C65.6176 77.6772 65.2264 77.9605 65.096 78.3288L52.1074 105.921H58.6539L60.5578 101.7H71.4599L73.3899 105.921H79.9364L66.9217 78.3288ZM63.4268 95.8642L66.0089 89.9435L68.5648 95.8642H63.4268Z" fill="#54565B"/>
</svg>
