<svg width="216" height="110" viewBox="0 0 216 110" fill="none" xmlns="http://www.w3.org/2000/svg">
<path d="M0.583167 55.0782C0.583167 44.4272 0.649511 33.7786 0.535778 23.1301C0.507344 20.4743 1.45512 17.965 3.28907 15.5417C9.26952 7.65253 20.3111 2.91198 35.6745 0.928325C39.3471 0.453259 43.1288 0.316804 46.8962 0.162661C52.0378 -0.0470758 57.189 0.00599125 62.3402 0.00599125C93.8537 0.0034643 125.367 0.00599125 156.881 0.00599125C161.506 0.00599125 166.126 0.0615827 170.737 0.261211C180.698 0.688265 189.844 2.28782 197.782 5.61328C205.81 8.97918 211.155 13.28 213.396 18.6144C214.567 21.3941 214.97 24.2343 214.974 27.0772C215.017 46.3022 215.164 65.5297 214.828 84.7547C214.752 89.1945 213.188 93.5131 208.985 97.4299C202.767 103.224 193.479 106.936 181.452 108.72C176.452 109.463 171.339 109.797 166.164 109.9C157.966 110.067 149.768 109.974 141.569 109.976C113.131 109.991 84.6934 109.986 56.2554 109.974C51.1848 109.971 46.1143 109.88 41.0816 109.544C29.4145 108.763 19.3301 106.272 11.4304 101.526C6.10395 98.3269 2.64458 94.6148 1.06653 90.4151C0.673206 89.3689 0.6116 88.3025 0.6116 87.2387C0.6116 76.5194 0.6116 65.8001 0.6116 55.0782C0.597383 55.0782 0.587906 55.0782 0.583167 55.0782ZM107.269 3.18994C84.7692 3.18994 62.2738 3.19247 39.7736 3.18742C37.0867 3.18742 34.4282 3.31629 31.8029 3.62205C16.2167 5.4465 4.82446 12.901 4.81024 21.4042C4.76759 43.2799 4.79602 65.1532 4.78655 87.0289C4.78655 88.3783 5.05666 89.71 5.59689 91.0266C9.01836 99.3377 22.9743 105.42 38.9443 105.43C84.3333 105.458 129.727 105.443 175.116 105.443C179.703 105.443 184.124 104.973 188.366 104.038C200.862 101.283 209.714 94.6199 209.686 86.8217C209.615 65.1582 209.657 43.4922 209.662 21.8287C209.662 20.7194 209.544 19.6201 209.179 18.526C207.534 13.5984 202.919 9.64124 195.365 6.69229C189.181 4.27653 182.186 3.17983 174.519 3.18742C152.109 3.20258 129.689 3.18994 107.269 3.18994Z" fill="#1D1B1A"/>
<path d="M107.27 3.18975C129.689 3.18975 152.109 3.20238 174.528 3.18217C182.196 3.17459 189.19 4.27128 195.375 6.68704C202.928 9.63852 207.544 13.5932 209.188 18.5207C209.553 19.6124 209.672 20.7141 209.672 21.8235C209.667 43.487 209.62 65.153 209.696 86.8165C209.724 94.6147 200.872 101.278 188.375 104.033C184.129 104.968 179.713 105.438 175.125 105.438C129.737 105.438 84.3429 105.455 38.954 105.425C22.984 105.415 9.028 99.335 5.60654 91.0213C5.0663 89.7048 4.79619 88.3731 4.79619 87.0237C4.80092 65.1479 4.77249 43.2747 4.81988 21.3989C4.83884 12.8957 16.2311 5.43873 31.8125 3.6168C34.4378 3.30852 37.0916 3.17964 39.7833 3.18217C62.274 3.19228 84.7694 3.18975 107.27 3.18975ZM107.303 6.47478C107.303 6.47225 107.303 6.4672 107.303 6.46467C103.99 6.46467 100.678 6.46467 97.3701 6.46467C78.7889 6.45962 60.2078 6.45456 41.6267 6.44951C36.7741 6.44698 32.0542 6.83613 27.6755 7.99347C17.4111 10.7049 11.5159 15.0588 11.478 21.2372C11.3548 43.5046 11.4306 65.7696 11.4353 88.037C11.4353 89.0326 11.6723 90.0181 12.1367 90.9834C13.8759 94.5641 17.9039 97.2705 23.51 99.3552C28.9455 101.377 35.0776 102.158 41.622 102.163C47.5598 102.168 53.5023 102.163 59.4401 102.163C97.3653 102.163 135.291 102.16 173.216 102.165C176.893 102.165 180.476 101.88 183.94 101.23C192.394 99.6433 198.336 96.6539 201.516 92.1635C202.952 90.1394 203.075 88.0117 203.071 85.879C203.052 75.4958 203.033 65.1126 203.028 54.7293C203.028 43.7017 203.042 32.6742 203.056 21.644C203.061 19.6983 202.488 17.8081 201.189 15.9837C197.427 10.6998 187.086 6.70979 175.026 6.48236C171.822 6.42172 168.614 6.47225 165.411 6.47225C146.043 6.47478 126.671 6.47478 107.303 6.47478Z" fill="#FFD73A"/>
<path d="M107.303 6.47489C126.676 6.47489 146.043 6.47489 165.416 6.47489C168.619 6.47489 171.828 6.42435 175.031 6.485C187.092 6.71243 197.432 10.6999 201.194 15.9863C202.493 17.8108 203.066 19.6984 203.062 21.6467C203.047 32.6743 203.033 43.7019 203.033 54.732C203.033 65.1152 203.057 75.4984 203.076 85.8816C203.081 88.0144 202.957 90.1395 201.521 92.1662C198.342 96.6565 192.394 99.6459 183.945 101.233C180.481 101.882 176.898 102.168 173.221 102.168C135.296 102.163 97.3705 102.165 59.4453 102.165C53.5075 102.165 47.5649 102.168 41.6271 102.165C35.0827 102.16 28.9506 101.379 23.5151 99.3578C17.9091 97.2731 13.881 94.5668 12.1418 90.9861C11.6727 90.0233 11.4405 89.0378 11.4405 88.0396C11.4358 65.7722 11.3552 43.5073 11.4831 21.2398C11.5163 15.0615 17.4162 10.7075 27.6806 7.99611C32.0593 6.83877 36.7793 6.45215 41.6319 6.45215C60.213 6.4572 78.7941 6.46226 97.3752 6.46731C100.688 6.46731 104 6.46731 107.308 6.46731C107.303 6.46984 107.303 6.47237 107.303 6.47489ZM164.62 62.9926C164.62 62.99 164.62 62.9875 164.62 62.985C166.932 62.985 169.245 62.9825 171.558 62.985C179.675 62.9926 187.798 62.9976 195.915 63.0178C196.579 63.0204 196.768 62.9142 196.749 62.568C196.707 61.7291 196.697 60.8876 196.749 60.0461C196.773 59.6823 196.527 59.6014 195.896 59.6039C192.56 59.6191 189.224 59.6115 185.883 59.614C185.476 59.614 185.115 59.5989 184.836 59.4043C183.187 58.2545 182.03 57.0163 182.215 55.5153C182.367 54.2645 184.367 52.4906 187.295 52.1974C188.888 52.0382 190.48 52.0559 192.077 52.0686C192.39 52.0711 192.636 52.0837 192.636 51.8462C192.622 50.7824 192.631 49.716 192.646 48.6521C192.646 48.4879 192.541 48.4348 192.243 48.4272C189.352 48.3615 186.461 48.3287 183.632 48.7178C178.945 49.3647 175.747 50.8657 174.529 53.418C173.647 55.2652 173.78 57.1023 175.026 58.904C175.325 59.3335 175.282 59.3613 174.458 59.3613C172.752 59.3613 171.041 59.3361 169.335 59.3664C168.534 59.3816 168.316 59.2527 168.321 58.8256C168.354 55.5608 168.326 52.296 168.359 49.0312C168.364 48.6496 168.16 48.5688 167.482 48.5763C165.672 48.5991 163.857 48.5789 162.042 48.5713C159.606 48.5612 157.156 48.455 154.753 48.7709C150.417 49.3445 147.531 50.7394 146.38 53.0667C145.252 55.341 146.058 57.3575 149.337 59.0202C149.489 59.0985 149.82 59.1541 149.673 59.3057C149.569 59.4169 149.29 59.3588 149.091 59.3588C146.385 59.3613 143.679 59.3588 140.973 59.3563C139.84 59.3563 139.84 59.3563 139.84 58.7726C139.836 53.1274 139.821 47.4796 139.84 41.8344C139.84 41.463 139.66 41.3568 138.964 41.3695C137.205 41.3973 135.443 41.3796 133.684 41.3796C132.547 41.3796 132.547 41.3796 132.547 41.9785C132.547 48.8164 132.557 55.6518 132.538 62.4897C132.538 62.889 132.713 63.0052 133.481 63.0027C143.859 62.9875 154.237 62.9926 164.62 62.9926ZM91.8544 48.5612C91.8544 48.2276 91.8213 47.98 91.8639 47.7349C91.916 47.4266 91.7217 47.3154 91.1199 47.3204C89.3855 47.3381 87.6511 47.3356 85.9166 47.3204C85.3906 47.3154 85.1821 47.3811 85.1821 47.6894C85.1963 52.5361 85.1963 57.3853 85.1821 62.2319C85.1821 62.5428 85.3622 62.6489 85.9498 62.6438C87.76 62.6262 89.575 62.6161 91.39 62.6413C92.1435 62.6514 92.3615 62.5352 92.3805 62.1283C92.4989 59.0455 92.4705 55.9626 92.4942 52.8822C92.4989 52.3693 92.6885 51.8841 93.2098 51.4444C94.9157 50.0041 98.3277 49.8196 100.906 51.0224C102.384 51.7148 103.052 52.6068 103.048 53.6277C103.029 56.4705 102.967 59.3159 102.887 62.1587C102.877 62.5605 103.119 62.659 103.834 62.6489C105.645 62.6211 107.46 62.6161 109.275 62.6413C110.071 62.6514 110.312 62.5251 110.308 62.0955C110.289 59.2653 110.308 56.4351 110.331 53.605C110.336 53.2133 110.364 52.8166 110.488 52.435C110.767 51.5809 111.44 50.838 113.122 50.5625C116.805 49.9586 120.686 51.0275 120.667 53.375C120.648 55.9373 120.615 58.5022 120.544 61.067C120.515 62.1283 119.529 62.9294 117.677 63.3868C117.155 63.5156 116.61 63.6142 116.037 63.6698C115.696 63.7026 115.497 63.7911 115.497 64.0084C115.516 64.9889 115.511 65.9693 115.501 66.9498C115.497 67.1848 115.677 67.2682 116.113 67.2707C118.349 67.2833 120.529 67.1165 122.482 66.5101C125.647 65.5246 127.614 64.16 127.557 62.0702C127.477 59.144 127.581 56.2153 127.6 53.2866C127.604 52.6978 127.548 52.109 127.33 51.5303C126.505 49.3243 124.306 47.7045 120.103 47.1233C115.757 46.5219 111.729 46.9768 108.208 48.5157C106.99 49.0489 107 49.0539 105.848 48.4475C102.27 46.5674 98.2424 46.3324 94.0059 47.7627C93.3187 47.9951 92.6743 48.2579 91.8544 48.5612ZM81.4905 54.9771C81.4953 54.3731 81.3768 53.7768 81.1256 53.188C79.377 49.0413 71.2498 46.3248 63.4781 47.2295C56.4408 48.0482 50.3182 51.8841 52.0906 56.5387C53.3511 59.8541 58.7866 62.6009 65.0419 62.8536C66.6057 62.9168 67.2549 63.1871 67.6293 63.973C68.1506 65.0647 68.8946 66.1285 69.6244 67.1873C70.4395 68.3648 72.4772 68.9233 74.5765 68.5948C76.6427 68.2714 77.7563 67.1898 77.1876 65.9592C76.6142 64.7134 75.7612 63.5106 74.9177 62.3103C74.6381 61.9136 74.7329 61.6912 75.3632 61.4284C79.2869 59.7934 81.4573 57.6708 81.4905 54.9771ZM45.0391 52.5487C45.6172 52.5487 46.1954 52.5487 46.7735 52.5487C48.688 52.5487 48.6928 52.5462 47.8445 51.6466C44.7169 48.3236 38.2057 46.479 31.557 47.1966C20.3354 48.407 15.8145 55.4471 22.8138 59.9299C26.3443 62.1915 30.8888 63.268 36.3954 62.8536C41.9873 62.4316 45.7547 60.645 48.162 57.974C48.4464 57.6607 48.2663 57.595 47.6787 57.5874C45.9727 57.5697 44.2619 57.547 42.5607 57.4889C41.8025 57.4636 41.3238 57.5723 40.8594 57.9159C38.291 59.8162 33.9265 60.1801 30.4149 58.7751C27.3773 57.5596 26.439 55.8944 27.0314 53.941C27.5621 52.2076 30.0737 50.7419 33.1445 50.3755C36.3291 49.994 39.5183 50.6686 41.2054 52.1823C41.5086 52.4552 41.9351 52.5563 42.5133 52.5512C43.3568 52.5411 44.2003 52.5487 45.0391 52.5487ZM181.746 67.2505C181.741 67.2505 181.732 67.2505 181.727 67.2505C181.727 67.7559 181.741 68.2587 181.722 68.7641C181.713 69.0446 181.746 69.2619 182.447 69.2543C183.774 69.2392 183.784 69.2417 183.812 68.7641C183.845 68.1501 183.741 67.5284 183.94 66.9194C184.078 66.4924 184.817 66.2119 185.594 66.2599C186.295 66.3029 186.618 66.5328 186.627 67.0129C186.637 67.6017 186.665 68.1905 186.622 68.7767C186.599 69.1027 186.807 69.219 187.428 69.224C188.636 69.2366 188.679 69.2291 188.689 68.5999C188.693 68.0389 188.665 67.4779 188.741 66.9194C188.807 66.4317 189.371 66.2346 190.399 66.2498C191.229 66.2624 191.323 66.5606 191.39 66.9068C191.508 67.5208 191.598 68.1349 191.394 68.7489C191.243 69.2139 191.944 69.1684 192.423 69.2619C192.977 69.3731 193.134 69.1912 193.29 68.9562C193.84 68.1223 193.735 67.2884 193.456 66.4343C193.247 65.805 192.541 65.4968 191.513 65.3098C190.684 65.1607 189.883 65.239 189.167 65.4664C188.513 65.6762 187.959 65.7217 187.3 65.469C186.855 65.2971 186.253 65.1986 185.727 65.2845C184.675 65.4589 183.651 65.4993 182.604 65.3224C182.58 65.3174 182.552 65.3224 182.523 65.3199C181.959 65.2643 181.703 65.3578 181.737 65.6939C181.779 66.2119 181.746 66.7324 181.746 67.2505ZM150.375 43.9925C150.37 44.5231 150.38 45.0563 150.365 45.587C150.361 45.8043 150.47 45.9357 150.929 45.9357C152.976 45.9407 155.024 45.9508 157.071 45.9584C157.497 45.9609 157.673 45.8523 157.673 45.6249C157.673 44.5484 157.682 43.4694 157.701 42.3929C157.706 42.12 157.483 42.0341 156.986 42.0366C155.043 42.0467 153.1 42.0467 151.157 42.0316C150.583 42.0265 150.346 42.12 150.37 42.4384C150.398 42.9564 150.375 43.4744 150.375 43.9925ZM163.53 42.0417V42.0442C162.483 42.0442 161.431 42.0543 160.383 42.0391C159.928 42.0341 159.796 42.1225 159.796 42.355C159.815 43.4466 159.815 44.5357 159.805 45.6274C159.8 45.8422 159.928 45.923 160.345 45.923C162.416 45.9129 164.492 45.9079 166.563 45.9155C166.975 45.9155 167.112 45.8472 167.108 45.6274C167.089 44.5357 167.079 43.4466 167.103 42.355C167.108 42.0821 166.895 42.029 166.444 42.0366C165.473 42.0518 164.501 42.0417 163.53 42.0417ZM147.603 68.0945C147.593 68.0945 147.588 68.0945 147.579 68.0945C147.579 67.3389 147.584 66.5808 147.579 65.8253C147.574 65.3275 147.408 65.2441 146.508 65.3553C145.645 65.4639 144.826 65.4589 143.954 65.3553C141.996 65.1253 140.452 65.6054 139.878 66.5808C139.414 67.3718 139.627 68.1122 140.651 68.7439C141.523 69.2847 142.703 69.3655 143.963 69.272C144.47 69.2341 145.044 68.8854 145.408 69.128C145.674 69.3049 145.489 69.694 145.427 69.9846C145.219 70.9524 145.352 70.768 146.844 70.8008C147.432 70.8135 147.626 70.7124 147.612 70.4016C147.579 69.6359 147.603 68.8652 147.603 68.0945ZM138.357 67.3035C138.362 67.3035 138.366 67.3035 138.371 67.3035C138.371 66.7855 138.376 66.2675 138.371 65.7495C138.366 65.3199 138.163 65.2314 137.371 65.3325C136.533 65.4386 135.755 65.5246 134.86 65.3527C133.424 65.0773 131.993 65.3679 131.154 65.9769C130.182 66.6844 130.149 67.8039 131.083 68.5493C131.879 69.1836 133.272 69.502 134.741 69.2569C135.713 69.0951 136.594 69.1533 137.513 69.2594C138.092 69.3276 138.366 69.2215 138.362 68.9031C138.352 68.3674 138.357 67.8367 138.357 67.3035ZM156.758 67.2707C156.777 67.2707 156.791 67.2707 156.81 67.2707C156.81 66.836 156.81 66.4014 156.81 65.9693C156.815 65.2971 156.521 65.1758 155.308 65.3957C154.763 65.4942 154.28 65.522 153.716 65.4184C151.019 64.9231 148.764 65.843 148.892 67.3667C149.005 68.7211 150.863 69.5677 153.166 69.2569C154.043 69.1381 154.81 69.0168 155.711 69.2392C156.374 69.4034 156.744 69.219 156.758 68.8273C156.772 68.3067 156.758 67.7887 156.758 67.2707ZM176.372 65.2365C174.154 65.2365 172.434 66.1285 172.429 67.2783C172.425 68.4331 174.192 69.3605 176.41 69.368C178.618 69.3756 180.443 68.4306 180.424 67.2934C180.4 66.1462 178.609 65.2365 176.372 65.2365ZM168.311 65.2542C165.572 65.239 163.729 66.2321 164.009 67.3996C164.208 68.2183 164.847 68.8753 166.354 69.1886C167.961 69.5222 169.439 69.3175 170.809 68.8071C171.122 68.6908 171.297 68.524 171.382 68.3219C171.467 68.1248 171.396 67.9605 171.112 67.8291C170.823 67.6952 170.491 67.6851 170.16 67.7811C169.7 67.9151 169.259 68.0641 168.795 68.1981C167.885 68.4583 167.06 68.3573 166.454 67.9176C165.88 67.5006 166.018 66.9118 166.786 66.5126C167.482 66.1512 168.33 66.131 169.112 66.4722C169.397 66.596 169.667 66.7324 170.017 66.8007C170.52 66.8992 171.027 66.9119 171.368 66.6592C171.723 66.3964 171.501 66.1538 171.107 65.9516C170.245 65.5069 169.207 65.2744 168.311 65.2542ZM158.45 67.1898H158.445C158.445 67.4552 158.445 67.723 158.445 67.9883C158.445 68.2537 158.45 68.5215 158.44 68.7868C158.431 69.1659 158.782 69.32 159.478 69.2796C160.075 69.2442 160.724 69.2922 160.63 68.7742C160.549 68.3295 160.563 67.8771 160.611 67.4299C160.682 66.7653 161.378 66.2397 162.743 66.3382C162.947 66.3534 163.203 66.3736 163.312 66.2523C163.558 65.9769 163.587 65.6736 163.364 65.4007C163.165 65.1531 162.644 65.2062 162.312 65.2744C161.378 65.469 160.464 65.5018 159.516 65.3249C159.421 65.3072 159.308 65.3098 159.203 65.3047C158.677 65.2719 158.421 65.3755 158.436 65.6762C158.469 66.179 158.45 66.6844 158.45 67.1898Z" fill="#161410"/>
<path d="M164.619 62.9929C154.241 62.9929 143.858 62.9878 133.48 63.003C132.712 63.003 132.537 62.8893 132.537 62.49C132.561 55.6521 132.551 48.8167 132.547 41.9788C132.547 41.3824 132.547 41.3824 133.684 41.3799C135.447 41.3799 137.205 41.3976 138.963 41.3698C139.66 41.3597 139.84 41.4633 139.84 41.8348C139.821 47.48 139.835 53.1277 139.84 58.7729C139.84 59.3566 139.84 59.3566 140.972 59.3566C143.678 59.3566 146.384 59.3591 149.09 59.3591C149.289 59.3591 149.564 59.4172 149.673 59.3061C149.82 59.1519 149.488 59.0963 149.336 59.0205C146.057 57.3578 145.251 55.3413 146.379 53.067C147.531 50.7397 150.417 49.3448 154.753 48.7712C157.156 48.4528 159.606 48.559 162.041 48.5716C163.856 48.5792 165.667 48.5994 167.482 48.5767C168.159 48.5691 168.363 48.6499 168.358 49.0315C168.325 52.2963 168.353 55.5611 168.32 58.8259C168.316 59.253 168.534 59.3819 169.334 59.3667C171.04 59.3364 172.751 59.3617 174.457 59.3617C175.282 59.3617 175.324 59.3313 175.026 58.9043C173.779 57.1026 173.647 55.2655 174.528 53.4183C175.746 50.8661 178.945 49.3625 183.632 48.7182C186.456 48.329 189.351 48.3593 192.242 48.4276C192.541 48.4351 192.65 48.4882 192.645 48.6525C192.631 49.7163 192.626 50.7827 192.635 51.8465C192.64 52.0841 192.394 52.0714 192.076 52.0689C190.479 52.0588 188.887 52.0386 187.295 52.1978C184.366 52.4909 182.371 54.2623 182.215 55.5156C182.03 57.0167 183.186 58.2574 184.835 59.4046C185.115 59.5992 185.475 59.6144 185.883 59.6144C189.219 59.6093 192.555 59.6169 195.896 59.6042C196.526 59.6017 196.768 59.6826 196.749 60.0465C196.701 60.8854 196.706 61.7269 196.749 62.5684C196.768 62.9171 196.573 63.0207 195.915 63.0181C187.797 62.9979 179.675 62.9929 171.557 62.9853C169.244 62.9828 166.932 62.9853 164.619 62.9853C164.619 62.9878 164.619 62.9903 164.619 62.9929ZM160.71 55.8416C160.71 55.0583 160.71 54.2724 160.71 53.489C160.71 52.1396 160.885 52.4353 158.658 52.3645C155.824 52.2736 154.331 52.8952 153.9 54.3179C153.658 55.1139 154.213 55.834 154.999 56.4936C156.298 57.5776 158.113 58.3761 160.075 59.0938C160.667 59.3111 160.714 59.1266 160.714 58.8689C160.71 57.8581 160.71 56.8499 160.71 55.8416Z" fill="#F8C800"/>
<path d="M91.8539 48.5614C92.6737 48.2556 93.3182 47.9953 94.0006 47.7654C98.2419 46.3351 102.265 46.5727 105.843 48.4502C106.995 49.0566 106.99 49.0491 108.203 48.5184C111.719 46.977 115.752 46.5246 120.098 47.1261C124.301 47.7073 126.495 49.3296 127.324 51.533C127.542 52.1117 127.594 52.7005 127.594 53.2893C127.58 56.218 127.471 59.1467 127.552 62.0729C127.609 64.1602 125.642 65.5273 122.477 66.5128C120.524 67.1192 118.344 67.286 116.107 67.2734C115.671 67.2709 115.496 67.1875 115.496 66.9525C115.506 65.972 115.51 64.9916 115.491 64.0111C115.487 63.7938 115.686 63.7053 116.032 63.6725C116.605 63.6169 117.145 63.5184 117.671 63.3895C119.519 62.9321 120.505 62.1311 120.538 61.0697C120.609 58.5074 120.643 55.9426 120.662 53.3777C120.68 51.0302 116.799 49.9613 113.117 50.5652C111.435 50.8407 110.762 51.5836 110.482 52.4377C110.359 52.8218 110.331 53.2185 110.326 53.6077C110.302 56.4379 110.283 59.268 110.302 62.0982C110.307 62.5253 110.061 62.6541 109.269 62.644C107.459 62.6188 105.644 62.6238 103.829 62.6516C103.113 62.6617 102.872 62.5632 102.881 62.1614C102.962 59.3186 103.023 56.4732 103.042 53.6304C103.052 52.607 102.384 51.7175 100.9 51.0251C98.3225 49.8198 94.9105 50.0042 93.2045 51.4471C92.6832 51.8868 92.4937 52.372 92.4889 52.885C92.4652 55.9678 92.4984 59.0507 92.3752 62.1311C92.361 62.5379 92.1382 62.6541 91.3848 62.644C89.5745 62.6188 87.7595 62.6289 85.9445 62.6466C85.3569 62.6516 85.1721 62.5455 85.1768 62.2347C85.1911 57.388 85.1911 52.5388 85.1768 47.6921C85.1768 47.3838 85.3854 47.3181 85.9114 47.3232C87.6458 47.3383 89.3802 47.3408 91.1147 47.3232C91.7165 47.3181 91.9108 47.4293 91.8587 47.7376C91.8207 47.9802 91.8539 48.2303 91.8539 48.5614Z" fill="#F8C800"/>
<path d="M81.4892 54.9773C81.456 57.671 79.2809 59.7911 75.3571 61.4286C74.7268 61.6914 74.632 61.9138 74.9116 62.3105C75.7552 63.5108 76.6081 64.7136 77.1815 65.9594C77.7502 67.19 76.6366 68.2741 74.5704 68.595C72.4711 68.9235 70.4287 68.3651 69.6183 67.1875C68.8885 66.1287 68.1398 65.0649 67.6232 63.9732C67.2489 63.1874 66.5997 62.917 65.0358 62.8538C58.7853 62.6011 53.3498 59.8543 52.0845 56.539C50.3121 51.8843 56.4348 48.0484 63.472 47.2297C71.2437 46.3251 79.3662 49.0415 81.1196 53.1882C81.3755 53.7795 81.4939 54.3734 81.4892 54.9773ZM66.7702 59.6168C68.2725 59.6143 69.4288 59.4601 70.514 59.1544C75.8831 57.6483 76.6698 53.3651 71.9735 51.2248C68.789 49.7743 64.1497 49.9512 61.3964 51.6316C58.7284 53.2615 58.3114 55.6343 60.4059 57.484C61.9082 58.8132 64.1165 59.5385 66.7702 59.6168Z" fill="#F8C800"/>
<path d="M45.0384 52.5484C44.1996 52.5484 43.3561 52.5408 42.5173 52.5509C41.9439 52.5585 41.5127 52.4549 41.2094 52.182C39.5271 50.6684 36.3331 49.9937 33.1486 50.3752C30.0778 50.7417 27.5615 52.2073 27.0354 53.9408C26.4431 55.8916 27.3814 57.5594 30.419 58.7748C33.9305 60.1798 38.295 59.8159 40.8635 57.9157C41.3279 57.572 41.8018 57.4633 42.5647 57.4886C44.266 57.5467 45.9767 57.5695 47.6827 57.5872C48.2656 57.5922 48.4457 57.6579 48.1661 57.9738C45.7587 60.6448 41.9913 62.4313 36.3995 62.8533C30.8976 63.2677 26.3531 62.1912 22.8179 59.9296C15.8185 55.4494 20.3394 48.4068 31.5611 47.1963C38.2097 46.4787 44.7209 48.3234 47.8486 51.6463C48.6968 52.5459 48.6921 52.5484 46.7776 52.5484C46.1947 52.5484 45.6166 52.5484 45.0384 52.5484Z" fill="#F8C800"/>
<path d="M181.745 67.2503C181.745 66.7323 181.779 66.2143 181.731 65.6963C181.703 65.3627 181.959 65.2667 182.518 65.3223C182.542 65.3248 182.57 65.3223 182.598 65.3248C183.65 65.5042 184.669 65.4613 185.721 65.2869C186.247 65.1985 186.849 65.2995 187.295 65.4714C187.953 65.7241 188.508 65.6786 189.162 65.4688C189.877 65.2414 190.678 65.1631 191.507 65.3122C192.54 65.4992 193.242 65.8074 193.45 66.4367C193.735 67.2908 193.834 68.1247 193.284 68.9586C193.128 69.1936 192.972 69.373 192.417 69.2643C191.943 69.1683 191.237 69.2138 191.389 68.7513C191.593 68.1398 191.503 67.5258 191.384 66.9092C191.318 66.563 191.223 66.2648 190.394 66.2522C189.365 66.2345 188.797 66.4316 188.735 66.9218C188.664 67.4803 188.693 68.0413 188.683 68.6023C188.674 69.2315 188.631 69.239 187.423 69.2264C186.802 69.2214 186.598 69.1051 186.617 68.7791C186.655 68.1929 186.631 67.6016 186.622 67.0153C186.612 66.5352 186.29 66.3053 185.589 66.2623C184.811 66.2143 184.072 66.4948 183.935 66.9218C183.736 67.5308 183.84 68.1525 183.807 68.7665C183.783 69.2416 183.769 69.2416 182.442 69.2567C181.741 69.2643 181.707 69.047 181.717 68.7665C181.736 68.2636 181.722 67.7583 181.722 67.2529C181.731 67.2503 181.736 67.2503 181.745 67.2503Z" fill="#F5C600"/>
<path d="M150.375 43.9927C150.375 43.4747 150.398 42.9566 150.365 42.4386C150.342 42.1202 150.583 42.0293 151.152 42.0318C153.095 42.047 155.038 42.0469 156.981 42.0368C157.483 42.0343 157.701 42.1177 157.696 42.3931C157.677 43.4696 157.668 44.5486 157.668 45.6251C157.668 45.8551 157.497 45.9612 157.066 45.9587C155.019 45.9485 152.972 45.941 150.924 45.9359C150.465 45.9359 150.356 45.8045 150.36 45.5872C150.379 45.0565 150.37 44.5234 150.375 43.9927Z" fill="#F8C800"/>
<path d="M163.529 42.0415C164.501 42.0415 165.472 42.0516 166.439 42.0365C166.889 42.0314 167.102 42.082 167.097 42.3549C167.078 43.4465 167.083 44.5356 167.102 45.6272C167.107 45.8471 166.965 45.9153 166.557 45.9153C164.486 45.9103 162.411 45.9128 160.34 45.9229C159.928 45.9254 159.8 45.8446 159.8 45.6272C159.814 44.5356 159.809 43.4465 159.79 42.3549C159.785 42.1224 159.923 42.0314 160.378 42.039C161.425 42.0516 162.477 42.044 163.524 42.044C163.529 42.044 163.529 42.044 163.529 42.0415Z" fill="#F8C800"/>
<path d="M147.602 68.0947C147.602 68.8654 147.579 69.6361 147.612 70.4068C147.626 70.7202 147.432 70.8187 146.844 70.8061C145.356 70.7732 145.223 70.9577 145.427 69.9899C145.489 69.6993 145.674 69.3076 145.408 69.1332C145.039 68.8881 144.47 69.2394 143.963 69.2773C142.702 69.3708 141.522 69.2874 140.65 68.7491C139.631 68.1174 139.418 67.3745 139.878 66.5861C140.447 65.6107 141.996 65.1306 143.953 65.3605C144.825 65.4641 145.65 65.4692 146.508 65.3605C147.408 65.2468 147.574 65.3302 147.579 65.8305C147.583 66.5861 147.579 67.3442 147.579 68.0997C147.588 68.0947 147.593 68.0947 147.602 68.0947ZM143.636 68.3575C144.688 68.3575 145.593 67.8875 145.612 67.3265C145.631 66.763 144.669 66.2525 143.607 66.2626C142.555 66.2727 141.683 66.7529 141.688 67.3189C141.693 67.89 142.574 68.3575 143.636 68.3575Z" fill="#F8C800"/>
<path d="M138.357 67.3032C138.357 67.8364 138.352 68.3671 138.357 68.9003C138.361 69.2187 138.086 69.3248 137.508 69.2566C136.589 69.1504 135.708 69.0923 134.736 69.254C133.267 69.4992 131.874 69.1808 131.078 68.5465C130.144 67.8036 130.172 66.6816 131.149 65.9741C131.987 65.3651 133.419 65.077 134.855 65.3499C135.755 65.5217 136.532 65.4358 137.366 65.3297C138.158 65.2286 138.361 65.3171 138.366 65.7466C138.376 66.2647 138.366 66.7827 138.366 67.3007C138.366 67.3032 138.361 67.3032 138.357 67.3032ZM136.324 67.3133C136.338 66.7296 135.508 66.2672 134.433 66.2596C133.357 66.252 132.471 66.7044 132.438 67.2754C132.409 67.8187 133.333 68.3292 134.362 68.3443C135.414 68.357 136.314 67.8844 136.324 67.3133Z" fill="#F5C600"/>
<path d="M156.757 67.2707C156.757 67.7888 156.771 68.3068 156.753 68.8248C156.738 69.2165 156.369 69.3984 155.705 69.2367C154.805 69.0143 154.037 69.1356 153.16 69.2544C150.862 69.5652 149.005 68.7187 148.886 67.3643C148.758 65.8405 151.014 64.9207 153.71 65.416C154.274 65.5196 154.762 65.4918 155.302 65.3932C156.516 65.1734 156.809 65.2972 156.805 65.9669C156.8 66.4015 156.805 66.8361 156.805 67.2682C156.79 67.2708 156.776 67.2707 156.757 67.2707ZM154.795 67.296C154.791 66.7072 153.961 66.2625 152.862 66.26C151.781 66.26 150.891 66.7148 150.867 67.2834C150.843 67.8444 151.815 68.3624 152.876 68.3548C153.938 68.3447 154.795 67.8722 154.795 67.296Z" fill="#F5C600"/>
<path d="M176.372 65.2363C178.609 65.2363 180.396 66.146 180.419 67.2933C180.443 68.4304 178.614 69.3729 176.405 69.3679C174.188 69.3603 172.425 68.4329 172.425 67.2781C172.434 66.1283 174.154 65.2363 176.372 65.2363ZM176.462 66.2421C175.372 66.2395 174.496 66.7196 174.496 67.3185C174.496 67.9023 175.358 68.3672 176.42 68.3622C177.462 68.3571 178.329 67.882 178.353 67.3034C178.377 66.7171 177.533 66.2421 176.462 66.2421Z" fill="#F5C600"/>
<path d="M168.31 65.2541C169.206 65.2743 170.244 65.5068 171.111 65.9515C171.504 66.1537 171.722 66.3963 171.372 66.6591C171.031 66.9118 170.519 66.8991 170.021 66.8006C169.67 66.7323 169.4 66.5959 169.116 66.4721C168.334 66.1309 167.486 66.1511 166.789 66.5125C166.022 66.9117 165.884 67.5005 166.458 67.9175C167.064 68.3572 167.889 68.4582 168.799 68.198C169.258 68.0666 169.704 67.915 170.163 67.781C170.49 67.685 170.827 67.6951 171.116 67.829C171.4 67.9604 171.471 68.1247 171.386 68.3218C171.301 68.5214 171.121 68.6907 170.813 68.807C169.448 69.3174 167.964 69.5221 166.358 69.1885C164.851 68.8752 164.211 68.2157 164.012 67.3995C163.728 66.232 165.571 65.2389 168.31 65.2541Z" fill="#F5C600"/>
<path d="M158.45 67.1901C158.45 66.6847 158.469 66.1819 158.445 65.6765C158.431 65.3758 158.687 65.2696 159.213 65.305C159.317 65.3126 159.426 65.3076 159.525 65.3252C160.473 65.5021 161.388 65.4693 162.321 65.2747C162.653 65.2065 163.174 65.1534 163.373 65.4011C163.596 65.674 163.568 65.9772 163.321 66.2526C163.212 66.3739 162.956 66.3537 162.752 66.3385C161.388 66.24 160.691 66.7656 160.62 67.4302C160.573 67.8775 160.558 68.3298 160.639 68.7745C160.734 69.2926 160.085 69.2445 159.487 69.2799C158.791 69.3204 158.44 69.1662 158.45 68.7872C158.454 68.5218 158.45 68.254 158.454 67.9887C158.454 67.7233 158.454 67.4555 158.454 67.1901C158.445 67.1901 158.45 67.1901 158.45 67.1901Z" fill="#F5C600"/>
<path d="M160.709 55.8414C160.709 56.8496 160.704 57.8579 160.709 58.8661C160.709 59.1239 160.661 59.3083 160.069 59.091C158.112 58.3708 156.292 57.5723 154.993 56.4908C154.202 55.8313 153.648 55.1111 153.894 54.3151C154.33 52.8949 155.823 52.2733 158.652 52.3618C160.879 52.4325 160.704 52.1394 160.704 53.4863C160.709 54.2721 160.709 55.0555 160.709 55.8414Z" fill="#161410"/>
<path d="M66.7712 59.6165C64.1175 59.5381 61.9139 58.8129 60.4117 57.4862C58.3171 55.634 58.7341 53.2612 61.4021 51.6338C64.1506 49.9534 68.7947 49.774 71.9792 51.227C76.6755 53.3673 75.8888 57.648 70.5197 59.1566C69.4297 59.4598 68.2734 59.6139 66.7712 59.6165Z" fill="#161410"/>
<path d="M143.635 68.3576C142.574 68.3576 141.697 67.8876 141.692 67.3215C141.688 66.7555 142.555 66.2754 143.612 66.2653C144.673 66.2552 145.635 66.7656 145.616 67.3291C145.592 67.8876 144.687 68.3601 143.635 68.3576Z" fill="#161410"/>
<path d="M136.323 67.3136C136.309 67.8847 135.413 68.3572 134.366 68.3446C133.333 68.332 132.414 67.819 132.442 67.2757C132.47 66.7046 133.361 66.2523 134.437 66.2599C135.508 66.2674 136.337 66.7299 136.323 67.3136Z" fill="#161410"/>
<path d="M154.795 67.2958C154.8 67.872 153.942 68.347 152.876 68.3546C151.815 68.3622 150.838 67.8442 150.867 67.2832C150.891 66.7146 151.781 66.2598 152.862 66.2598C153.961 66.2598 154.791 66.707 154.795 67.2958Z" fill="#161410"/>
<path d="M176.462 66.2422C177.533 66.2447 178.376 66.7173 178.353 67.3035C178.329 67.8822 177.462 68.3547 176.419 68.3623C175.353 68.3674 174.495 67.9024 174.495 67.3187C174.495 66.7198 175.372 66.2397 176.462 66.2422Z" fill="#161410"/>
</svg>
