<svg width="25" height="25" viewBox="0 0 25 25" fill="none" xmlns="http://www.w3.org/2000/svg">
<path d="M25 12.5C24.9993 9.185 23.6822 6.00596 21.3381 3.6619C18.994 1.31784 15.815 0.000662802 12.5 0V2.5C14.4776 2.50045 16.4107 3.08704 18.0551 4.18567C19.6995 5.2843 20.9814 6.84566 21.7388 8.6725C22.2414 9.88596 22.5001 11.1866 22.5 12.5H25ZM0 10V3.75C0 3.41848 0.131696 3.10054 0.366116 2.86612C0.600537 2.6317 0.918479 2.5 1.25 2.5H7.5C7.83152 2.5 8.14946 2.6317 8.38388 2.86612C8.6183 3.10054 8.75 3.41848 8.75 3.75V8.75C8.75 9.08152 8.6183 9.39946 8.38388 9.63388C8.14946 9.8683 7.83152 10 7.5 10H5C5 12.6522 6.05357 15.1957 7.92893 17.0711C9.8043 18.9464 12.3478 20 15 20V17.5C15 17.1685 15.1317 16.8505 15.3661 16.6161C15.6005 16.3817 15.9185 16.25 16.25 16.25H21.25C21.5815 16.25 21.8995 16.3817 22.1339 16.6161C22.3683 16.8505 22.5 17.1685 22.5 17.5V23.75C22.5 24.0815 22.3683 24.3995 22.1339 24.6339C21.8995 24.8683 21.5815 25 21.25 25H15C6.71625 25 0 18.2838 0 10Z" fill="white" fill-opacity="0.79"/>
<path d="M19.4287 9.63C19.8061 10.5398 20.0002 11.5151 20 12.5H17.75C17.7502 11.8105 17.6145 11.1278 17.3507 10.4907C17.0869 9.85368 16.7002 9.27486 16.2127 8.78732C15.7251 8.29978 15.1463 7.91308 14.5093 7.6493C13.8722 7.38552 13.1895 7.24984 12.5 7.25V5C13.9833 5.00008 15.4333 5.44 16.6666 6.26413C17.8999 7.08826 18.8611 8.25959 19.4287 9.63Z" fill="white" fill-opacity="0.79"/>
</svg>
