<svg width="20" height="20" viewBox="0 0 20 20" fill="none" xmlns="http://www.w3.org/2000/svg">
<g clip-path="url(#clip0_471_3827)">
<path d="M17.209 12.253C17.113 11.586 16.598 11.066 15.935 10.911C13.358 10.307 12.712 8.823 12.603 7.177C12.146 7.092 11.333 7 9.95303 7C8.57303 7 7.76003 7.092 7.30303 7.177C7.19403 8.823 6.54803 10.307 3.97103 10.911C3.30803 11.067 2.79303 11.586 2.69703 12.253L2.20003 15.695C2.02503 16.907 2.91503 18 4.15303 18H15.753C16.99 18 17.881 16.907 17.706 15.695L17.209 12.253ZM9.95303 15.492C8.55803 15.492 7.42703 14.372 7.42703 12.992C7.42703 11.612 8.55803 10.492 9.95303 10.492C11.348 10.492 12.479 11.612 12.479 12.992C12.479 14.372 11.347 15.492 9.95303 15.492ZM19.903 6C19.879 4.5 16.061 2.001 9.95303 2C3.84403 2.001 0.0260316 4.5 0.00303159 6C-0.0199684 7.5 0.0240316 9.452 2.53803 9.127C5.47903 8.746 5.29803 7.719 5.29803 6.251C5.29803 5.227 7.69003 4.98 9.95303 4.98C12.216 4.98 14.607 5.227 14.608 6.251C14.608 7.719 14.427 8.746 17.368 9.127C19.881 9.452 19.926 7.5 19.903 6Z" fill="white"/>
</g>
<defs>
<clipPath id="clip0_471_3827">
<rect width="19.906" height="20" fill="white"/>
</clipPath>
</defs>
</svg>
