<svg width="140" height="171" viewBox="0 0 140 171" fill="none" xmlns="http://www.w3.org/2000/svg">
<path d="M64.195 0.471957C64.1672 0.0813087 64.369 -0.065191 64.8006 0.0263671C65.4548 0.166756 66.1091 0.771046 66.6868 1.08234C72.5193 4.26246 78.2823 7.45478 84.0939 10.4762C90.4694 13.7906 96.7682 17.1294 102.998 20.4927C109.422 23.9597 115.741 27.1764 121.999 30.5946C127.483 33.5855 132.989 36.5031 138.501 39.3475C138.988 39.5978 139.287 40.0617 139.287 40.5561C139.287 70.4223 139.225 100.325 139.093 130.265C139.086 131.058 138.675 131.669 137.854 132.084C131.186 135.49 124.636 138.841 118.212 142.137C101.661 150.633 84.783 159.337 67.5846 168.243C66.5267 168.792 65.5801 169.525 64.5709 170.129C64.2368 170.331 63.7914 170.111 63.8122 169.763C63.8958 168.145 63.9375 166.546 63.9445 164.965C64.1046 111.508 64.2299 57.7873 64.3134 3.80467C64.3343 2.68766 64.2855 1.57676 64.195 0.471957Z" fill="#294199"/>
<path d="M56.1566 137.717C53.477 137.003 50.853 136.405 48.2778 135.935C32.6176 133.06 16.8182 130.106 0.886555 127.084C0.545511 127.017 0.294922 126.755 0.294922 126.449L0.39934 31.2351C0.4063 30.6247 0.768228 30.0632 1.35984 29.7458C16.4772 21.707 31.7615 13.5461 47.199 5.26313C50.1849 3.66391 53.2751 1.94261 56.4629 0.117548C56.6577 0.00767832 56.9292 0.105339 56.9709 0.306767C57.0405 0.61196 57.0753 0.935463 57.0684 1.27728C57.0057 5.73311 56.9849 11.0069 56.9918 17.1046C57.0266 50.2914 56.9988 83.1974 56.8944 115.829C56.8665 122.482 56.8109 129.141 56.7065 135.794C56.6995 136.405 56.6438 136.979 56.5464 137.51C56.5185 137.668 56.3306 137.766 56.1566 137.717Z" fill="#FAAC40"/>
</svg>
