<svg width="24" height="25" viewBox="0 0 24 25" fill="none" xmlns="http://www.w3.org/2000/svg">
<path d="M20.0003 16.5001V8.14011C20.48 7.973 20.9093 7.68683 21.2482 7.30843C21.587 6.93003 21.8242 6.47179 21.9376 5.97667C22.051 5.48154 22.0368 4.96573 21.8963 4.4776C21.7559 3.98946 21.4938 3.54498 21.1346 3.18581C20.7754 2.82664 20.3309 2.56455 19.8428 2.4241C19.3547 2.28365 18.8389 2.26943 18.3437 2.3828C17.8486 2.49616 17.3904 2.73338 17.012 3.07223C16.6336 3.41107 16.3474 3.84045 16.1803 4.32011H7.82029C7.65317 3.84045 7.36701 3.41107 6.98861 3.07223C6.61021 2.73338 6.15197 2.49616 5.65684 2.3828C5.16171 2.26943 4.64591 2.28365 4.15777 2.4241C3.66963 2.56455 3.22515 2.82664 2.86598 3.18581C2.50682 3.54498 2.24472 3.98946 2.10427 4.4776C1.96382 4.96573 1.94961 5.48154 2.06297 5.97667C2.17633 6.47179 2.41356 6.93003 2.7524 7.30843C3.09125 7.68683 3.52063 7.973 4.00029 8.14011V16.5001C3.52063 16.6672 3.09125 16.9534 2.7524 17.3318C2.41356 17.7102 2.17633 18.1684 2.06297 18.6636C1.94961 19.1587 1.96382 19.6745 2.10427 20.1626C2.24472 20.6508 2.50682 21.0953 2.86598 21.4544C3.22515 21.8136 3.66963 22.0757 4.15777 22.2161C4.64591 22.3566 5.16171 22.3708 5.65684 22.2574C6.15197 22.1441 6.61021 21.9068 6.98861 21.568C7.36701 21.2292 7.65317 20.7998 7.82029 20.3201H16.1803C16.3474 20.7998 16.6336 21.2292 17.012 21.568C17.3904 21.9068 17.8486 22.1441 18.3437 22.2574C18.8389 22.3708 19.3547 22.3566 19.8428 22.2161C20.3309 22.0757 20.7754 21.8136 21.1346 21.4544C21.4938 21.0953 21.7559 20.6508 21.8963 20.1626C22.0368 19.6745 22.051 19.1587 21.9376 18.6636C21.8242 18.1684 21.587 17.7102 21.2482 17.3318C20.9093 16.9534 20.48 16.6672 20.0003 16.5001ZM19.0003 4.32011C19.1981 4.32011 19.3914 4.37876 19.5559 4.48864C19.7203 4.59853 19.8485 4.7547 19.9242 4.93743C19.9999 5.12016 20.0197 5.32122 19.9811 5.5152C19.9425 5.70918 19.8472 5.88737 19.7074 6.02722C19.5675 6.16707 19.3894 6.26231 19.1954 6.3009C19.0014 6.33948 18.8003 6.31968 18.6176 6.24399C18.4349 6.16831 18.2787 6.04013 18.1688 5.87568C18.0589 5.71123 18.0003 5.51789 18.0003 5.32011C18.0003 5.0549 18.1056 4.80054 18.2932 4.61301C18.4807 4.42547 18.7351 4.32011 19.0003 4.32011ZM5.00029 4.32011C5.19807 4.32011 5.39141 4.37876 5.55586 4.48864C5.72031 4.59853 5.84848 4.7547 5.92417 4.93743C5.99986 5.12016 6.01966 5.32122 5.98107 5.5152C5.94249 5.70918 5.84725 5.88737 5.7074 6.02722C5.56754 6.16707 5.38936 6.26231 5.19538 6.3009C5.0014 6.33948 4.80033 6.31968 4.61761 6.24399C4.43488 6.16831 4.2787 6.04013 4.16882 5.87568C4.05894 5.71123 4.00029 5.51789 4.00029 5.32011C4.00029 5.0549 4.10565 4.80054 4.29318 4.61301C4.48072 4.42547 4.73507 4.32011 5.00029 4.32011ZM5.00029 20.3201C4.80251 20.3201 4.60917 20.2615 4.44472 20.1516C4.28027 20.0417 4.1521 19.8855 4.07641 19.7028C4.00072 19.5201 3.98092 19.319 4.0195 19.125C4.05809 18.931 4.15333 18.7529 4.29318 18.613C4.43304 18.4732 4.61122 18.3779 4.8052 18.3393C4.99918 18.3007 5.20025 18.3205 5.38297 18.3962C5.5657 18.4719 5.72188 18.6001 5.83176 18.7645C5.94164 18.929 6.00029 19.1223 6.00029 19.3201C6.00029 19.5853 5.89493 19.8397 5.7074 20.0272C5.51986 20.2148 5.26551 20.3201 5.00029 20.3201ZM16.1803 18.3201H7.82029C7.67097 17.9007 7.43018 17.5198 7.11539 17.205C6.8006 16.8902 6.41969 16.6494 6.00029 16.5001V8.14011C6.41969 7.9908 6.8006 7.75001 7.11539 7.43521C7.43018 7.12042 7.67097 6.73951 7.82029 6.32011H16.1803C16.3296 6.73951 16.5704 7.12042 16.8852 7.43521C17.2 7.75001 17.5809 7.9908 18.0003 8.14011V16.5001C17.5809 16.6494 17.2 16.8902 16.8852 17.205C16.5704 17.5198 16.3296 17.9007 16.1803 18.3201ZM19.0003 20.3201C18.8025 20.3201 18.6092 20.2615 18.4447 20.1516C18.2803 20.0417 18.1521 19.8855 18.0764 19.7028C18.0007 19.5201 17.9809 19.319 18.0195 19.125C18.0581 18.931 18.1533 18.7529 18.2932 18.613C18.433 18.4732 18.6112 18.3779 18.8052 18.3393C18.9992 18.3007 19.2002 18.3205 19.383 18.3962C19.5657 18.4719 19.7219 18.6001 19.8318 18.7645C19.9416 18.929 20.0003 19.1223 20.0003 19.3201C20.0003 19.5853 19.8949 19.8397 19.7074 20.0272C19.5199 20.2148 19.2655 20.3201 19.0003 20.3201Z" fill="#322F8D" fill-opacity="0.46"/>
</svg>
