<svg width="25" height="25" viewBox="0 0 25 25" fill="none" xmlns="http://www.w3.org/2000/svg">
<path d="M22.2881 12.3205H5.28809V6.73071C5.28458 6.37058 5.37962 6.01635 5.56293 5.70635C5.74624 5.39634 6.01083 5.14237 6.32809 4.97192C6.6789 4.7818 7.07867 4.70127 7.47573 4.74072C7.27363 5.35277 7.24492 6.00883 7.39277 6.6362C7.54063 7.26357 7.85929 7.83776 8.31344 8.29516L9.37403 9.35571C9.46686 9.44858 9.57708 9.52226 9.69839 9.57253C9.81971 9.6228 9.94974 9.64867 10.0811 9.64867C10.2124 9.64867 10.3424 9.6228 10.4637 9.57253C10.585 9.52226 10.6953 9.44858 10.7881 9.35571L14.3232 5.82055C14.4161 5.72772 14.4898 5.61749 14.5401 5.49618C14.5903 5.37486 14.6162 5.24483 14.6162 5.11352C14.6162 4.9822 14.5903 4.85217 14.5401 4.73085C14.4898 4.60954 14.4161 4.49932 14.3232 4.40649L13.2627 3.34594C12.6724 2.75831 11.8916 2.40088 11.0611 2.33808C10.2306 2.27527 9.40491 2.51123 8.73298 3.00341C8.12714 2.7668 7.47268 2.68178 6.8265 2.75575C6.18032 2.82971 5.562 3.06043 5.0253 3.42782C4.48861 3.79521 4.0498 4.28816 3.74703 4.86379C3.44427 5.43943 3.28672 6.08031 3.28809 6.73071V12.3205H2.28809C2.02287 12.3205 1.76852 12.4259 1.58098 12.6134C1.39344 12.801 1.28809 13.0553 1.28809 13.3205C1.28809 13.5858 1.39344 13.8401 1.58098 14.0277C1.76852 14.2152 2.02287 14.3205 2.28809 14.3205H3.28809V17.3205C3.28999 17.9389 3.48326 18.5416 3.84136 19.0457C4.19946 19.5498 4.70483 19.9308 5.28809 20.1362V21.3205C5.28809 21.5858 5.39344 21.8401 5.58098 22.0277C5.76852 22.2152 6.02287 22.3205 6.28809 22.3205C6.5533 22.3205 6.80766 22.2152 6.99519 22.0277C7.18273 21.8401 7.28809 21.5858 7.28809 21.3205V20.3205H17.2881V21.3205C17.2881 21.5858 17.3934 21.8401 17.581 22.0277C17.7685 22.2152 18.0229 22.3205 18.2881 22.3205C18.5533 22.3205 18.8077 22.2152 18.9952 22.0277C19.1827 21.8401 19.2881 21.5858 19.2881 21.3205V20.1363C19.8713 19.9308 20.3767 19.5499 20.7348 19.0457C21.0929 18.5416 21.2862 17.9389 21.2881 17.3205V14.3205H22.2881C22.5533 14.3205 22.8077 14.2152 22.9952 14.0277C23.1827 13.8401 23.2881 13.5858 23.2881 13.3205C23.2881 13.0553 23.1827 12.801 22.9952 12.6134C22.8077 12.4259 22.5533 12.3205 22.2881 12.3205ZM9.72754 4.76C10.0091 4.47921 10.3905 4.32153 10.7881 4.32153C11.1857 4.32153 11.5671 4.47921 11.8486 4.76L12.2021 5.11352L10.0811 7.23461L9.72757 6.8811C9.44663 6.59965 9.28884 6.21822 9.28883 5.82055C9.28882 5.42288 9.4466 5.04146 9.72754 4.76ZM19.2881 17.3205C19.2879 17.5857 19.1825 17.84 18.995 18.0275C18.8075 18.215 18.5532 18.3204 18.2881 18.3205H6.28809C6.02292 18.3204 5.76867 18.215 5.58118 18.0275C5.39368 17.84 5.28826 17.5857 5.28809 17.3205V14.3205H19.2881V17.3205Z" fill="#322F8D" fill-opacity="0.46"/>
</svg>
