<svg width="25" height="23" viewBox="0 0 25 23" fill="none" xmlns="http://www.w3.org/2000/svg">
<mask id="path-1-inside-1_1038_1104" fill="white">
<path d="M21.3568 3.34656C20.205 2.28158 18.8331 1.43718 17.3212 0.862625C15.8092 0.288067 14.1873 -0.00515212 12.5503 6.85049e-05C5.69095 6.85049e-05 0.100503 5.11755 0.100503 11.3965C0.100503 13.409 0.678392 15.364 1.75879 17.089L0 23L6.59548 21.413C8.41709 22.3215 10.4648 22.8045 12.5503 22.8045C19.4095 22.8045 25 17.687 25 11.408C25 8.36054 23.706 5.49705 21.3568 3.34656ZM12.5503 20.8725C10.691 20.8725 8.86935 20.4125 7.27387 19.55L6.89698 19.343L2.97739 20.286L4.0201 16.79L3.76884 16.4335C2.73586 14.9235 2.18736 13.1782 2.18593 11.3965C2.18593 6.17555 6.83417 1.92056 12.5377 1.92056C15.3015 1.92056 17.902 2.90956 19.8492 4.70356C20.8134 5.58211 21.5775 6.62711 22.0972 7.77798C22.6169 8.92886 22.882 10.1627 22.8769 11.408C22.902 16.629 18.2538 20.8725 12.5503 20.8725ZM18.2286 13.7885C17.9146 13.6505 16.3819 12.9605 16.1055 12.857C15.8166 12.765 15.6156 12.719 15.402 12.995C15.1884 13.2825 14.598 13.9265 14.4221 14.1105C14.2462 14.306 14.0578 14.329 13.7437 14.1795C13.4296 14.0415 12.4246 13.731 11.2437 12.765C10.3141 12.006 9.69849 11.0745 9.51005 10.787C9.33417 10.4995 9.48492 10.35 9.64824 10.2005C9.78643 10.074 9.96231 9.86704 10.1131 9.70604C10.2638 9.54504 10.3266 9.41854 10.4271 9.23454C10.5276 9.03904 10.4774 8.87804 10.402 8.74004C10.3266 8.60204 9.69849 7.19905 9.44724 6.62405C9.19598 6.07205 8.93216 6.14105 8.74372 6.12955H8.1407C7.92714 6.12955 7.6005 6.19855 7.31156 6.48605C7.03518 6.77355 6.23116 7.46355 6.23116 8.86654C6.23116 10.2695 7.34925 11.6265 7.5 11.8105C7.65075 12.006 9.69849 14.881 12.8141 16.1115C13.5553 16.4105 14.1332 16.583 14.5854 16.7095C15.3266 16.928 16.005 16.8935 16.5452 16.8245C17.1482 16.744 18.392 16.1345 18.6432 15.4675C18.907 14.8005 18.907 14.237 18.8191 14.1105C18.7312 13.984 18.5427 13.9265 18.2286 13.7885Z"/>
</mask>
<path d="M21.3568 3.34656C20.205 2.28158 18.8331 1.43718 17.3212 0.862625C15.8092 0.288067 14.1873 -0.00515212 12.5503 6.85049e-05C5.69095 6.85049e-05 0.100503 5.11755 0.100503 11.3965C0.100503 13.409 0.678392 15.364 1.75879 17.089L0 23L6.59548 21.413C8.41709 22.3215 10.4648 22.8045 12.5503 22.8045C19.4095 22.8045 25 17.687 25 11.408C25 8.36054 23.706 5.49705 21.3568 3.34656ZM12.5503 20.8725C10.691 20.8725 8.86935 20.4125 7.27387 19.55L6.89698 19.343L2.97739 20.286L4.0201 16.79L3.76884 16.4335C2.73586 14.9235 2.18736 13.1782 2.18593 11.3965C2.18593 6.17555 6.83417 1.92056 12.5377 1.92056C15.3015 1.92056 17.902 2.90956 19.8492 4.70356C20.8134 5.58211 21.5775 6.62711 22.0972 7.77798C22.6169 8.92886 22.882 10.1627 22.8769 11.408C22.902 16.629 18.2538 20.8725 12.5503 20.8725ZM18.2286 13.7885C17.9146 13.6505 16.3819 12.9605 16.1055 12.857C15.8166 12.765 15.6156 12.719 15.402 12.995C15.1884 13.2825 14.598 13.9265 14.4221 14.1105C14.2462 14.306 14.0578 14.329 13.7437 14.1795C13.4296 14.0415 12.4246 13.731 11.2437 12.765C10.3141 12.006 9.69849 11.0745 9.51005 10.787C9.33417 10.4995 9.48492 10.35 9.64824 10.2005C9.78643 10.074 9.96231 9.86704 10.1131 9.70604C10.2638 9.54504 10.3266 9.41854 10.4271 9.23454C10.5276 9.03904 10.4774 8.87804 10.402 8.74004C10.3266 8.60204 9.69849 7.19905 9.44724 6.62405C9.19598 6.07205 8.93216 6.14105 8.74372 6.12955H8.1407C7.92714 6.12955 7.6005 6.19855 7.31156 6.48605C7.03518 6.77355 6.23116 7.46355 6.23116 8.86654C6.23116 10.2695 7.34925 11.6265 7.5 11.8105C7.65075 12.006 9.69849 14.881 12.8141 16.1115C13.5553 16.4105 14.1332 16.583 14.5854 16.7095C15.3266 16.928 16.005 16.8935 16.5452 16.8245C17.1482 16.744 18.392 16.1345 18.6432 15.4675C18.907 14.8005 18.907 14.237 18.8191 14.1105C18.7312 13.984 18.5427 13.9265 18.2286 13.7885Z" fill="#322F8D"/>
<path d="M21.3568 3.34656L14.5677 10.6888L14.5861 10.7058L14.6046 10.7228L21.3568 3.34656ZM12.5503 6.85049e-05V10.0001H12.5662L12.5821 10L12.5503 6.85049e-05ZM1.75879 17.089L11.3435 19.9409L12.6321 15.6102L10.2337 11.781L1.75879 17.089ZM0 23L-9.58471 20.1481L-14.5343 36.7826L2.33942 32.7225L0 23ZM6.59548 21.413L11.0585 12.4642L7.79825 10.8382L4.25606 11.6905L6.59548 21.413ZM7.27387 19.55L2.45982 28.315L2.48904 28.331L2.51837 28.3469L7.27387 19.55ZM6.89698 19.343L11.711 10.578L8.31971 8.71539L4.55788 9.62043L6.89698 19.343ZM2.97739 20.286L-6.60545 17.4278L-11.5695 34.0711L5.3165 30.0086L2.97739 20.286ZM4.0201 16.79L13.6029 19.6482L14.9903 14.9967L12.194 11.0292L4.0201 16.79ZM3.76884 16.4335L-4.48464 22.0798L-4.44525 22.1373L-4.40505 22.1944L3.76884 16.4335ZM2.18593 11.3965H-7.81407L-7.81407 11.4046L2.18593 11.3965ZM19.8492 4.70356L13.0735 12.0581L13.0937 12.0767L13.114 12.0952L19.8492 4.70356ZM22.8769 11.408L12.877 11.3674L12.8768 11.4118L12.877 11.4562L22.8769 11.408ZM16.1055 12.857L19.6125 3.49214L19.378 3.40433L19.1394 3.32837L16.1055 12.857ZM15.402 12.995L7.49326 6.87525L7.43313 6.95296L7.37453 7.03184L15.402 12.995ZM14.4221 14.1105L7.19334 7.20076L7.08892 7.31001L6.98784 7.42235L14.4221 14.1105ZM13.7437 14.1795L18.0417 5.15028L17.905 5.08522L17.7664 5.02432L13.7437 14.1795ZM11.2437 12.765L17.5753 5.02482L17.568 5.01883L11.2437 12.765ZM9.51005 10.787L0.979681 16.0055L1.06104 16.1385L1.14652 16.2689L9.51005 10.787ZM9.64824 10.2005L16.4004 17.5767L9.64824 10.2005ZM10.4271 9.23454L19.2033 14.0282L19.2634 13.9181L19.3208 13.8066L10.4271 9.23454ZM9.44724 6.62405L18.6106 2.61995L18.5802 2.55037L18.5487 2.48127L9.44724 6.62405ZM8.74372 6.12955L9.35285 -3.85188L9.04857 -3.87045H8.74372V6.12955ZM7.31156 6.48605L0.258244 -0.602728L0.179482 -0.52436L0.10248 -0.444261L7.31156 6.48605ZM7.5 11.8105L15.419 5.70402L15.3288 5.58711L15.2353 5.4729L7.5 11.8105ZM12.8141 16.1115L16.5551 6.83765L16.5213 6.82403L16.4874 6.81064L12.8141 16.1115ZM14.5854 16.7095L17.413 7.11761L17.3462 7.09791L17.2791 7.07914L14.5854 16.7095ZM16.5452 16.8245L17.8122 26.7439L17.8403 26.7403L17.8684 26.7366L16.5452 16.8245ZM18.6432 15.4675L9.34419 11.7895L9.31405 11.8657L9.28516 11.9424L18.6432 15.4675ZM28.1458 -3.99569C26.0242 -5.95753 23.5448 -7.47006 20.8733 -8.48521L13.769 10.2105C14.1215 10.3444 14.3859 10.5207 14.5677 10.6888L28.1458 -3.99569ZM20.8733 -8.48521C18.2026 -9.50011 15.3648 -10.009 12.5184 -9.99988L12.5821 10C13.0099 9.99865 13.4158 10.0762 13.769 10.2105L20.8733 -8.48521ZM12.5503 -9.99993C1.01853 -9.99993 -9.8995 -1.21899 -9.8995 11.3965H10.1005C10.1005 11.3339 10.1106 11.0812 10.5053 10.7199C10.9128 10.3468 11.615 10.0001 12.5503 10.0001V-9.99993ZM-9.8995 11.3965C-9.8995 15.3512 -8.75819 19.1367 -6.71615 22.3971L10.2337 11.781C10.115 11.5914 10.1005 11.4669 10.1005 11.3965H-9.8995ZM-7.82592 14.2371L-9.58471 20.1481L9.58471 25.8519L11.3435 19.9409L-7.82592 14.2371ZM2.33942 32.7225L8.93489 31.1355L4.25606 11.6905L-2.33942 13.2775L2.33942 32.7225ZM2.13241 30.3618C5.35522 31.9691 8.93265 32.8045 12.5503 32.8045V12.8045C11.997 12.8045 11.479 12.6739 11.0585 12.4642L2.13241 30.3618ZM12.5503 32.8045C24.082 32.8045 35 24.0236 35 11.408H15C15 11.4707 14.9899 11.7234 14.5952 12.0847C14.1877 12.4577 13.4855 12.8045 12.5503 12.8045V32.8045ZM35 11.408C35 5.41563 32.4224 -0.0811048 28.1089 -4.02964L14.6046 10.7228C14.8181 10.9181 14.9085 11.0746 14.9467 11.1591C14.9834 11.2402 15 11.315 15 11.408H35ZM12.5503 10.8725C12.3272 10.8725 12.143 10.8145 12.0294 10.7531L2.51837 28.3469C5.59571 30.0105 9.05472 30.8725 12.5503 30.8725V10.8725ZM12.0879 10.785L11.711 10.578L2.08294 28.108L2.45982 28.315L12.0879 10.785ZM4.55788 9.62043L0.638278 10.5634L5.3165 30.0086L9.23609 29.0656L4.55788 9.62043ZM12.5602 23.1442L13.6029 19.6482L-5.56274 13.9318L-6.60545 17.4278L12.5602 23.1442ZM12.194 11.0292L11.9427 10.6727L-4.40505 22.1944L-4.15379 22.5509L12.194 11.0292ZM12.0223 10.7873C12.0931 10.8907 12.1857 11.101 12.1859 11.3885L-7.81407 11.4046C-7.81097 15.2553 -6.62134 18.9564 -4.48464 22.0798L12.0223 10.7873ZM12.1859 11.3965C12.1859 11.5951 12.1381 11.7806 12.0751 11.9166C12.017 12.0419 11.9659 12.0853 11.9751 12.0769C12.0026 12.0518 12.1802 11.9206 12.5377 11.9206V-8.07944C2.16175 -8.07944 -7.81407 -0.160992 -7.81407 11.3965H12.1859ZM12.5377 11.9206C12.9155 11.9206 13.0623 12.0478 13.0735 12.0581L26.625 -2.65098C22.7417 -6.22864 17.6875 -8.07944 12.5377 -8.07944V11.9206ZM13.114 12.0952C13.1043 12.0863 13.0435 12.0268 12.9834 11.8936L31.211 3.66233C30.1115 1.22746 28.5226 -0.922112 26.5845 -2.68808L13.114 12.0952ZM12.9834 11.8936C12.9219 11.7574 12.8761 11.5755 12.877 11.3674L32.8768 11.4487C32.8878 8.74989 32.312 6.10028 31.211 3.66233L12.9834 11.8936ZM12.877 11.4562C12.876 11.2501 12.925 11.0539 12.993 10.9063C13.0559 10.7698 13.1136 10.7184 13.1097 10.7219C13.0922 10.7379 12.917 10.8725 12.5503 10.8725V30.8725C22.8955 30.8725 32.9327 22.9816 32.8768 11.3599L12.877 11.4562ZM22.2514 4.63332C22.1006 4.56709 21.7507 4.40963 21.2075 4.16867C20.9714 4.06397 20.7161 3.95127 20.4926 3.85423C20.3818 3.80613 20.2606 3.75394 20.1439 3.70479C20.0675 3.67262 19.8519 3.58178 19.6125 3.49214L12.5986 22.2219C12.4283 22.1582 12.321 22.1115 12.3826 22.1374C12.4038 22.1464 12.4501 22.1661 12.5268 22.1994C12.6783 22.2652 12.8775 22.353 13.0984 22.451C13.3162 22.5476 13.5369 22.646 13.7299 22.7321C13.9047 22.8101 14.0948 22.8949 14.2059 22.9437L22.2514 4.63332ZM19.1394 3.32837C19.0496 3.29975 18.5451 3.13509 17.921 3.00656C17.2622 2.87086 16.1207 2.69624 14.7136 2.83936C11.2247 3.19422 8.83081 5.1467 7.49326 6.87525L23.3108 19.1148C22.8303 19.7358 22.0322 20.5992 20.8261 21.346C19.5452 22.1392 18.1366 22.5944 16.7374 22.7367C15.4434 22.8683 14.4197 22.7052 13.8864 22.5954C13.6085 22.5381 13.3927 22.4799 13.2716 22.4455C13.208 22.4275 13.1578 22.4124 13.1263 22.4027C13.0953 22.3932 13.0744 22.3866 13.0716 22.3857L19.1394 3.32837ZM7.37453 7.03184C7.42185 6.96815 7.4601 6.91868 7.48512 6.88674C7.51087 6.85386 7.53055 6.82941 7.54238 6.81484C7.56468 6.78737 7.57358 6.77716 7.56445 6.78789C7.54482 6.81099 7.50195 6.86039 7.43723 6.93291C7.3756 7.00197 7.31194 7.07205 7.25775 7.131C7.23112 7.15997 7.20989 7.18285 7.19537 7.19841C7.17846 7.21653 7.1789 7.21586 7.19334 7.20076L21.6509 21.0203C21.7985 20.8659 22.7977 19.8086 23.4295 18.9582L7.37453 7.03184ZM6.98784 7.42235C8.02515 6.26933 10.0488 4.65189 13.0793 4.33025C15.6585 4.05652 17.5297 4.90657 18.0417 5.15028L9.44574 23.2088C10.2718 23.602 12.3942 24.5153 15.1901 24.2186C18.4374 23.8739 20.6432 22.1472 21.8564 20.7987L6.98784 7.42235ZM17.7664 5.02432C17.6913 4.9913 17.625 4.96315 17.5718 4.94087C17.5182 4.91845 17.4706 4.899 17.4324 4.8835C17.3601 4.85422 17.2949 4.82851 17.261 4.81512C17.2444 4.80859 17.2214 4.79955 17.211 4.79546C17.197 4.78995 17.1866 4.78584 17.1774 4.78218C17.1593 4.77503 17.15 4.77129 17.145 4.76928C17.1339 4.76476 17.1746 4.78105 17.2345 4.81051C17.2936 4.83958 17.3569 4.87426 17.4196 4.91379C17.4821 4.9532 17.5342 4.99122 17.5753 5.02482L4.91212 20.5052C6.18394 21.5456 7.39672 22.2598 8.40309 22.755C8.90107 23.0001 9.32576 23.1803 9.6283 23.303C9.76532 23.3586 9.89662 23.4099 9.92816 23.4224C10.0189 23.4581 9.88824 23.4082 9.72101 23.3347L17.7664 5.02432ZM17.568 5.01883C17.6887 5.11735 17.7668 5.19457 17.807 5.23627C17.8483 5.27917 17.8713 5.30716 17.8793 5.31703C17.8883 5.32816 17.8929 5.33458 17.8943 5.33669C17.8976 5.34129 17.8994 5.34456 17.8736 5.30513L1.14652 16.2689C1.42701 16.6969 2.73385 18.7268 4.91945 20.5112L17.568 5.01883ZM18.0404 5.56853C18.5155 6.34516 19.106 7.57231 19.3355 9.19177C19.5798 10.9154 19.346 12.6046 18.7603 14.0964C18.2207 15.471 17.4913 16.4022 17.0813 16.874C16.8663 17.1214 16.6827 17.306 16.5756 17.4107C16.5197 17.4652 16.4744 17.5079 16.4464 17.5341C16.432 17.5476 16.4205 17.5582 16.413 17.5651C16.4057 17.5719 16.4009 17.5763 16.4004 17.5767L2.89608 2.82433C2.87038 2.84786 2.43825 3.23369 1.98473 3.7556C1.50602 4.3065 0.719353 5.32107 0.143574 6.7877C-1.31198 10.4953 -0.306602 13.9029 0.979681 16.0055L18.0404 5.56853ZM16.4004 17.5767C16.6426 17.355 16.8365 17.1583 16.9578 17.0325C17.0847 16.9009 17.1919 16.7843 17.2597 16.7101C17.3197 16.6444 17.3955 16.5604 17.4102 16.5442C17.4436 16.5073 17.4357 16.5163 17.4126 16.541L2.81355 2.87105C2.76174 2.92639 2.71566 2.97641 2.67837 3.01716C2.64119 3.05778 2.60766 3.09475 2.58236 3.12271C2.56956 3.13684 2.55727 3.15044 2.54725 3.16154C2.53648 3.17345 2.52842 3.18237 2.52041 3.19122C2.50445 3.20887 2.49652 3.21759 2.49218 3.22233C2.48807 3.22684 2.49206 3.22242 2.50168 3.2121C2.51119 3.2019 2.53074 3.18105 2.55816 3.15261C2.58525 3.1245 2.62633 3.08243 2.67896 3.03051C2.73088 2.97929 2.80435 2.9083 2.89608 2.82433L16.4004 17.5767ZM17.4126 16.541C17.9512 15.9658 18.3875 15.3843 18.7489 14.8108C18.9079 14.5586 19.0282 14.3459 19.0969 14.2224C19.1312 14.1607 19.1602 14.1074 19.1756 14.0791C19.198 14.0379 19.1959 14.0417 19.2033 14.0282L1.65097 4.4409C1.63324 4.47337 1.60718 4.52138 1.60633 4.52293C1.59843 4.53746 1.60492 4.52542 1.6168 4.50404C1.64074 4.46098 1.71714 4.32449 1.82895 4.14707C2.09622 3.72301 2.4257 3.28526 2.81355 2.87105L17.4126 16.541ZM19.3208 13.8066C21.5716 9.42828 20.0356 5.51622 19.1782 3.94641L1.62585 13.5337C1.36086 13.0485 0.743829 11.8285 0.545998 10.1081C0.32612 8.19608 0.692091 6.29926 1.53352 4.6625L19.3208 13.8066ZM19.1782 3.94641C19.2442 4.06731 19.2924 4.16186 19.3125 4.20136C19.3368 4.24935 19.355 4.28634 19.3647 4.30609C19.3751 4.32749 19.3826 4.34305 19.3863 4.35072C19.3902 4.35888 19.3923 4.36338 19.3923 4.36339C19.3924 4.36358 19.3913 4.3612 19.3888 4.35587C19.3863 4.35062 19.383 4.34342 19.3786 4.33408C19.3699 4.31514 19.3585 4.29058 19.3445 4.26004C19.2863 4.13318 19.2045 3.95289 19.1104 3.74363C18.9208 3.32218 18.7168 2.86292 18.6106 2.61995L0.283875 10.6282C0.407863 10.9119 1.27756 12.896 1.62585 13.5337L19.1782 3.94641ZM18.5487 2.48127C17.8442 0.933333 16.2807 -1.57965 13.0983 -2.97948C11.6338 -3.62365 10.3408 -3.79061 9.58033 -3.84264C9.23832 -3.86604 8.95564 -3.86762 8.93119 -3.8679C8.81029 -3.86927 9.07204 -3.86902 9.35285 -3.85188L8.13459 16.111C8.46251 16.131 8.77372 16.1316 8.7043 16.1308C8.7043 16.1308 8.7041 16.1308 8.70376 16.1308C8.70341 16.1308 8.70288 16.1308 8.70219 16.1308C8.70084 16.1308 8.69873 16.1307 8.69605 16.1307C8.69076 16.1306 8.6824 16.1305 8.67188 16.1304C8.65115 16.13 8.61834 16.1294 8.5775 16.1282C8.49665 16.126 8.37057 16.1213 8.21529 16.1107C7.56514 16.0662 6.38909 15.9187 5.04555 15.3277C2.10498 14.0342 0.799058 11.7628 0.345733 10.7668L18.5487 2.48127ZM8.74372 -3.87045H8.1407V16.1296H8.74372V-3.87045ZM8.1407 -3.87045C5.86782 -3.87045 2.7981 -3.12988 0.258244 -0.602728L14.3649 13.5748C12.4029 15.527 9.98645 16.1296 8.1407 16.1296V-3.87045ZM0.10248 -0.444261C0.39464 -0.748172 -0.90231 0.474665 -1.8552 2.02731C-2.94209 3.7983 -3.76884 6.11126 -3.76884 8.86654H16.2312C16.2312 10.2188 15.8064 11.4853 15.1906 12.4887C14.7088 13.2737 13.9521 14.0078 14.5206 13.4164L0.10248 -0.444261ZM-3.76884 8.86654C-3.76884 12.028 -2.58463 14.4771 -1.93468 15.6482C-1.19387 16.9831 -0.421431 17.921 -0.23527 18.1482L15.2353 5.4729C15.2222 5.4569 15.2475 5.48764 15.2749 5.52263C15.3006 5.55544 15.3268 5.5901 15.3533 5.62686C15.3999 5.69165 15.4705 5.79491 15.5528 5.94312C15.6295 6.08139 15.7751 6.36357 15.9119 6.78136C16.0459 7.1906 16.2312 7.91153 16.2312 8.86654H-3.76884ZM-0.418999 17.917C-0.42373 17.9109 0.550865 19.2577 2.06511 20.7338C3.51337 22.1455 5.90013 24.1325 9.14069 25.4124L16.4874 6.81064C16.586 6.84957 16.5701 6.85756 16.4503 6.77321C16.3335 6.69089 16.1862 6.5688 16.0253 6.41203C15.8683 6.25896 15.7412 6.11468 15.6581 6.0144C15.6189 5.96703 15.5922 5.93267 15.578 5.91424C15.5708 5.90486 15.5642 5.89607 15.5542 5.88273C15.5331 5.85459 15.5563 5.88556 15.5256 5.84448C15.5226 5.84051 15.4743 5.77572 15.419 5.70402L-0.418999 17.917ZM9.07303 25.3854C10.2808 25.8726 11.242 26.1582 11.8918 26.3399L17.2791 7.07914C17.1294 7.03728 17.0259 7.00646 16.9245 6.97322C16.8249 6.94055 16.7045 6.89791 16.5551 6.83765L9.07303 25.3854ZM11.7578 26.3014C14.395 27.0788 16.6436 26.8932 17.8122 26.7439L15.2782 6.90511C15.3664 6.89384 16.2583 6.77721 17.413 7.11761L11.7578 26.3014ZM17.8684 26.7366C19.9187 26.4629 21.6683 25.6491 22.7978 24.9844C23.4693 24.5893 24.315 24.0172 25.1558 23.2241C25.9204 22.5029 27.2026 21.113 28.0013 18.9927L9.28516 11.9424C9.95825 10.1555 10.9907 9.09193 11.4326 8.67511C11.9507 8.18641 12.4007 7.89681 12.6544 7.7475C12.9293 7.58574 13.2071 7.45227 13.5058 7.33753C13.7314 7.25086 14.3354 7.03081 15.222 6.91245L17.8684 26.7366ZM27.9422 19.1456C28.4148 17.9507 28.7101 16.7131 28.8214 15.4983C28.8758 14.9048 28.9028 14.138 28.8145 13.27C28.7758 12.8896 28.5873 10.6427 27.03 8.40251L10.6082 19.8185C9.7195 18.5401 9.35174 17.3626 9.20351 16.8219C9.0279 16.1814 8.95298 15.6463 8.91716 15.2942C8.84535 14.5883 8.87236 14.0278 8.90474 13.6743C8.97202 12.9397 9.13541 12.3173 9.34419 11.7895L27.9422 19.1456ZM27.03 8.40251C25.4732 6.16319 23.465 5.19619 22.9887 4.96411C22.6765 4.81201 22.4002 4.69616 22.3414 4.67127C22.2186 4.61924 22.2493 4.63244 22.2514 4.63332L14.2059 22.9437C14.365 23.0136 14.5371 23.0858 14.5407 23.0873C14.6083 23.1159 14.4434 23.0482 14.2286 22.9436C13.947 22.8064 12.077 21.9314 10.6082 19.8185L27.03 8.40251Z" fill="white" mask="url(#path-1-inside-1_1038_1104)"/>
</svg>
